0
SECTION
2
HEADER
9
$INSUNITS
70
1
9
$ACADVER
1
AC1014
9
$HANDSEED
5
FFFF
0
ENDSEC
0
SECTION
2
TABLES
0
TABLE
2
VPORT
5
8
100
AcDbSymbolTable
0
ENDTAB
0
TABLE
2
LTYPE
5
5
100
AcDbSymbolTable
0
LTYPE
5
14
100
AcDbSymbolTableRecord
100
AcDbLinetypeTableRecord
2
BYBLOCK
70
0
0
LTYPE
5
15
100
AcDbSymbolTableRecord
100
AcDbLinetypeTableRecord
2
BYLAYER
70
0
0
ENDTAB
0
TABLE
2
LAYER
5
2
100
AcDbSymbolTable
70
2
0
LAYER
5
50
100
AcDbSymbolTableRecord
100
AcDbLayerTableRecord
2
0
70
0
6
CONTINUOUS
0
ENDTAB
0
TABLE
2
STYLE
5
3
100
AcDbSymbolTable
70
1
0
STYLE
5
11
100
AcDbSymbolTableRecord
100
AcDbTextStyleTableRecord
2
STANDARD
70
0
0
ENDTAB
0
TABLE
2
VIEW
5
6
100
AcDbSymbolTable
70
0
0
ENDTAB
0
TABLE
2
UCS
5
7
100
AcDbSymbolTable
70
0
0
ENDTAB
0
TABLE
2
APPID
5
9
100
AcDbSymbolTable
70
2
0
APPID
5
12
100
AcDbSymbolTableRecord
100
AcDbRegAppTableRecord
2
ACAD
70
0
0
ENDTAB
0
TABLE
2
DIMSTYLE
5
A
100
AcDbSymbolTable
70
1
0
ENDTAB
0
TABLE
2
BLOCK_RECORD
5
1
100
AcDbSymbolTable
70
1
0
BLOCK_RECORD
5
1F
100
AcDbSymbolTableRecord
100
AcDbBlockTableRecord
2
*MODEL_SPACE
0
BLOCK_RECORD
5
1B
100
AcDbSymbolTableRecord
100
AcDbBlockTableRecord
2
*PAPER_SPACE
0
ENDTAB
0
ENDSEC
0
SECTION
2
BLOCKS
0
BLOCK
5
20
100
AcDbEntity
100
AcDbBlockBegin
2
*MODEL_SPACE
0
ENDBLK
5
21
100
AcDbEntity
100
AcDbBlockEnd
0
BLOCK
5
1C
100
AcDbEntity
100
AcDbBlockBegin
2
*PAPER_SPACE
0
ENDBLK
5
1D
100
AcDbEntity
100
AcDbBlockEnd
0
ENDSEC
0
SECTION
2
ENTITIES
0
CIRCLE
5
100
100
AcDbEntity
8
0
100
AcDbCircle
10
-5.3738921259842511
20
2.2556503937007872
30
0
40
0.039370078740157334
0
CIRCLE
5
101
100
AcDbEntity
8
0
100
AcDbCircle
10
-7.8090295496070246
20
4.7608933057002396
30
0
40
0.041338582677165517
0
CIRCLE
5
102
100
AcDbEntity
8
0
100
AcDbCircle
10
-2.952500787401577
20
2.0353629921259855
30
0
40
0.04133858267716517
0
CIRCLE
5
103
100
AcDbEntity
8
0
100
AcDbCircle
10
-4.7374769055118069
20
5.4122842519685062
30
0
40
0.041338582677165517
0
CIRCLE
5
104
100
AcDbEntity
8
0
100
AcDbCircle
10
-2.952500787401573
20
4.767264566929132
30
0
40
0.041338582677165517
0
CIRCLE
5
105
100
AcDbEntity
8
0
100
AcDbCircle
10
-7.0532231949053443
20
6.0793896049452565
30
0
40
0.041338582677165517
0
CIRCLE
5
106
100
AcDbEntity
8
0
100
AcDbCircle
10
-5.1820746244750877
20
2.0380186844834882
30
0
40
0.041338582677165517
0
CIRCLE
5
107
100
AcDbEntity
8
0
100
AcDbCircle
10
-4.6698112022965672
20
2.0380186844834873
30
0
40
0.041338582677165517
0
CIRCLE
5
108
100
AcDbEntity
8
0
100
AcDbCircle
10
-2.604084905511812
20
2.7937999999999992
30
0
40
0.12499999999999994
0
CIRCLE
5
109
100
AcDbEntity
8
0
100
AcDbCircle
10
-6.8993813622047258
20
2.0353629921259913
30
0
40
0.041338582677165517
0
CIRCLE
5
110
100
AcDbEntity
8
0
100
AcDbCircle
10
-7.5945410938774707
20
5.8377857675543874
30
0
40
0.1249999999999996
0
CIRCLE
5
111
100
AcDbEntity
8
0
100
AcDbCircle
10
-7.2477972440944898
20
2.5156976377953142
30
0
40
0.1249999999999996
0
ARC
5
112
100
AcDbEntity
8
0
100
AcDbCircle
10
-2.9328250629921286
20
2.015697637795276
30
0
40
0.078740157480315376
100
AcDbArc
50
270.00000000000068
51
360
0
LINE
5
113
100
AcDbEntity
8
0
100
AcDbLine
10
-2.8540849055118134
20
2.0156976377952751
30
0
11
-2.8540849055118125
21
2.2937999999999996
31
0
0
ARC
5
114
100
AcDbEntity
8
0
100
AcDbCircle
10
-2.604084905511812
20
2.2937999999999992
30
0
40
0.25000000000000022
100
AcDbArc
50
90.000000000000099
51
180
0
ARC
5
115
100
AcDbEntity
8
0
100
AcDbCircle
10
-2.604084905511812
20
2.7937999999999992
30
0
40
0.24999999999999989
100
AcDbArc
50
-90.000000000000099
51
89.999999999999901
0
ARC
5
116
100
AcDbEntity
8
0
100
AcDbCircle
10
-2.6040849055118112
20
3.2937999999999983
30
0
40
0.2499999999999992
100
AcDbArc
50
180
51
269.99999999999989
0
LINE
5
117
100
AcDbEntity
8
0
100
AcDbLine
10
-2.8540849055118103
20
3.2937999999999983
30
0
11
-2.8540849055118085
21
4.7869299212598415
31
0
0
ARC
5
118
100
AcDbEntity
8
0
100
AcDbCircle
10
-2.9328250629921242
20
4.7869299212598424
30
0
40
0.078740157480315723
100
AcDbArc
50
0
51
90
0
LINE
5
119
100
AcDbEntity
8
0
100
AcDbLine
10
-2.9328250629921242
20
4.8656700787401572
30
0
11
-4.1666200787401548
21
4.865670078740159
31
0
0
ARC
5
120
100
AcDbEntity
8
0
100
AcDbCircle
10
-4.1666200787401557
20
5.338111023622047
30
0
40
0.47244094488188804
100
AcDbArc
50
180
51
270.00000000000011
0
LINE
5
121
100
AcDbEntity
8
0
100
AcDbLine
10
-4.6390610236220438
20
5.3381110236220488
30
0
11
-4.6390610236220438
21
5.4319496062992156
31
0
0
ARC
5
122
100
AcDbEntity
8
0
100
AcDbCircle
10
-4.7178011811023577
20
5.4319496062992165
30
0
40
0.078740157480314668
100
AcDbArc
50
0
51
90.000000000003226
0
ARC
5
123
100
AcDbEntity
8
0
100
AcDbCircle
10
-4.7423779742686536
20
9.7499410346297317
30
0
40
4.2393225114595143
100
AcDbArc
50
237.54106376080253
51
270.3321649642071
0
ARC
5
124
100
AcDbEntity
8
0
100
AcDbCircle
10
-7.0598606770432335
20
6.1064620467346931
30
0
40
0.078740157480345865
100
AcDbArc
50
57.541063760802864
51
150.0036064868269
0
ARC
5
125
100
AcDbEntity
8
0
100
AcDbCircle
10
-7.3445683503873491
20
6.2708142048561664
30
0
40
0.24999999999999914
100
AcDbArc
50
240.0036064868265
51
330.00360648682664
0
ARC
5
126
100
AcDbEntity
8
0
100
AcDbCircle
10
-7.5945410938774707
20
5.8377857675543874
30
0
40
0.24999999999999925
100
AcDbArc
50
60.003606486825973
51
240.00360648682627
0
ARC
5
127
100
AcDbEntity
8
0
100
AcDbCircle
10
-7.8445138373675931
20
5.4047573302526075
30
0
40
0.25000000000000017
100
AcDbArc
50
-29.996393513174031
51
60.003606486826151
0
LINE
5
128
100
AcDbEntity
8
0
100
AcDbLine
10
-7.6279996187167036
20
5.2797709585075454
30
0
11
-7.9048056814655698
21
4.8002590920766446
31
0
0
ARC
5
129
100
AcDbEntity
8
0
100
AcDbCircle
10
-7.8366122267723695
20
4.7608933057002432
30
0
40
0.078740157480323064
100
AcDbArc
50
150.00360648682602
51
240.00182863405647
0
LINE
5
130
100
AcDbEntity
8
0
100
AcDbLine
10
-7.8759801291307427
20
4.6927010725359892
30
0
11
-7.0371694992164286
21
4.208449223852667
31
0
0
ARC
5
131
100
AcDbEntity
8
0
100
AcDbCircle
10
-7.0765374015748028
20
4.1402569906884263
30
0
40
0.078740157480314668
100
AcDbArc
50
0
51
60.001828634051058
0
LINE
5
132
100
AcDbEntity
8
0
100
AcDbLine
10
-6.997797244094488
20
4.1402569906884246
30
0
11
-6.9977972440944871
21
3.0156497410473699
31
0
0
ARC
5
133
100
AcDbEntity
8
0
100
AcDbCircle
10
-7.2477972440944871
20
3.0156976377953142
30
0
40
0.25000000000000022
100
AcDbArc
50
269.99999999999937
51
359.98902287393736
0
ARC
5
134
100
AcDbEntity
8
0
100
AcDbCircle
10
-7.2477972440944898
20
2.5156976377953142
30
0
40
0.24999999999999956
100
AcDbArc
50
90
51
270.00000000000063
0
ARC
5
135
100
AcDbEntity
8
0
100
AcDbCircle
10
-7.24779724409452
20
2.0156976377952822
30
0
40
0.25000000000003136
100
AcDbArc
50
0
51
89.999999999992468
0
ARC
5
136
100
AcDbEntity
8
0
100
AcDbCircle
10
-6.919057086614175
20
2.0156976377952791
30
0
40
0.07874015748031328
100
AcDbArc
50
180
51
270
0
LINE
5
137
100
AcDbEntity
8
0
100
AcDbLine
10
-6.919057086614175
20
1.9369574803149661
30
0
11
-2.9328250629921278
21
1.9369574803149607
31
0
0
ENDSEC
0
SECTION
2
OBJECTS
0
DICTIONARY
5
C
100
AcDbDictionary
3
ACAD_GROUP
350
D
3
ACAD_MLINESTYLE
350
17
0
DICTIONARY
5
D
100
AcDbDictionary
0
DICTIONARY
5
1A
330
C
100
AcDbDictionary
0
DICTIONARY
5
17
100
AcDbDictionary
0
ENDSEC
0
EOF
