0
SECTION
2
HEADER
9
$INSUNITS
70
1
9
$ACADVER
1
AC1014
9
$HANDSEED
5
FFFF
0
ENDSEC
0
SECTION
2
TABLES
0
TABLE
2
VPORT
5
8
100
AcDbSymbolTable
0
ENDTAB
0
TABLE
2
LTYPE
5
5
100
AcDbSymbolTable
0
LTYPE
5
14
100
AcDbSymbolTableRecord
100
AcDbLinetypeTableRecord
2
BYBLOCK
70
0
0
LTYPE
5
15
100
AcDbSymbolTableRecord
100
AcDbLinetypeTableRecord
2
BYLAYER
70
0
0
ENDTAB
0
TABLE
2
LAYER
5
2
100
AcDbSymbolTable
70
2
0
LAYER
5
50
100
AcDbSymbolTableRecord
100
AcDbLayerTableRecord
2
0
70
0
6
CONTINUOUS
0
ENDTAB
0
TABLE
2
STYLE
5
3
100
AcDbSymbolTable
70
1
0
STYLE
5
11
100
AcDbSymbolTableRecord
100
AcDbTextStyleTableRecord
2
STANDARD
70
0
0
ENDTAB
0
TABLE
2
VIEW
5
6
100
AcDbSymbolTable
70
0
0
ENDTAB
0
TABLE
2
UCS
5
7
100
AcDbSymbolTable
70
0
0
ENDTAB
0
TABLE
2
APPID
5
9
100
AcDbSymbolTable
70
2
0
APPID
5
12
100
AcDbSymbolTableRecord
100
AcDbRegAppTableRecord
2
ACAD
70
0
0
ENDTAB
0
TABLE
2
DIMSTYLE
5
A
100
AcDbSymbolTable
70
1
0
ENDTAB
0
TABLE
2
BLOCK_RECORD
5
1
100
AcDbSymbolTable
70
1
0
BLOCK_RECORD
5
1F
100
AcDbSymbolTableRecord
100
AcDbBlockTableRecord
2
*MODEL_SPACE
0
BLOCK_RECORD
5
1B
100
AcDbSymbolTableRecord
100
AcDbBlockTableRecord
2
*PAPER_SPACE
0
ENDTAB
0
ENDSEC
0
SECTION
2
BLOCKS
0
BLOCK
5
20
100
AcDbEntity
100
AcDbBlockBegin
2
*MODEL_SPACE
0
ENDBLK
5
21
100
AcDbEntity
100
AcDbBlockEnd
0
BLOCK
5
1C
100
AcDbEntity
100
AcDbBlockBegin
2
*PAPER_SPACE
0
ENDBLK
5
1D
100
AcDbEntity
100
AcDbBlockEnd
0
ENDSEC
0
SECTION
2
ENTITIES
0
LWPOLYLINE
5
100
100
AcDbEntity
8
0
100
AcDbPolyline
90
24
70
1
43
0.0
10
-7.0250241261557926
20
5.8442484759310913
42
-0.41421356237309248
10
-6.9259902644632243
20
5.8707964370252581
10
-6.3379702250766474
20
5.5313909308858209
42
0.068137782099948807
10
-6.324783002606952
20
5.5260099688078306
10
-5.5873611789209736
20
5.3366497572578506
42
0.062921841491897765
10
-5.5743035063464212
20
5.3350000000000026
10
-4.8946999999999958
20
5.3350000000000035
42
-0.41421356237309509
10
-4.822199999999996
20
5.2625000000000037
10
-4.822199999999996
20
4.6374999999999966
42
-0.41421356237309509
10
-4.8946999999999958
20
4.5649999999999968
10
-5.519700000000002
20
4.5649999999999959
42
-0.41421356237309509
10
-5.5922000000000018
20
4.6374999999999957
10
-5.5922000000000018
20
4.8694268699666949
42
0.87690765976594476
10
-5.6954089913405204
20
4.8830227589492985
10
-5.7599619741135957
20
4.6422575799578292
42
-0.41421356237309165
10
-5.8487639517026686
20
4.5910061528921364
10
-6.4524424200421748
20
4.7528619741135962
42
-0.41421356237309076
10
-6.5036938471078667
20
4.8416639517026701
10
-6.4240735405177523
20
5.1386261762820178
42
0.87709493216554546
10
-6.5202518125224334
20
5.1784669603088709
10
-6.9517758738441984
20
4.4308515240689159
42
-0.41421356237309248
10
-7.0508097355367658
20
4.4043035629747491
10
-7.5921106958244051
20
4.716742789691998
42
-0.41421356237309753
10
-7.6186586569185719
20
4.8157766513845663
0
LWPOLYLINE
5
101
100
AcDbEntity
8
0
100
AcDbPolyline
90
34
70
1
43
0.0
10
-3.0408999999999997
20
2.4813000000000005
42
-0.41421356237309359
10
-3.1133999999999995
20
2.4088000000000003
10
-3.7383999999999995
20
2.4088000000000003
42
0.41421356237309892
10
-3.7908999999999988
20
2.3562999999999996
10
-3.7908999999999988
20
2.2938000000000001
42
-0.41421356237309509
10
-3.8633999999999986
20
2.2212999999999998
10
-4.4883999999999986
20
2.2213000000000003
42
0.34211407050083109
10
-4.539238323969224
20
2.1819039999999994
42
-0.34211407050083081
10
-4.6094436284981564
20
2.1274999999999991
10
-5.24235637150184
20
2.1274999999999991
42
-0.34211407050082554
10
-5.3125616760307715
20
2.1819039999999994
42
0.34211407050083292
10
-5.3633999999999986
20
2.2212999999999998
10
-5.9883999999999995
20
2.2212999999999998
42
-0.34188335158277966
10
-6.0585903289919623
20
2.2756460000000001
42
0.34188335158278055
10
-6.1094178086068318
20
2.3149999999999991
10
-6.7383999999999986
20
2.3149999999999995
42
-0.4142135623731063
10
-6.8109000000000002
20
2.3875000000000002
10
-6.8108999999999975
20
4.512500000000002
42
-0.41421356237309781
10
-6.7383999999999986
20
4.5850000000000017
10
-6.1094178086068318
20
4.5850000000000017
42
-0.34188335158278427
10
-6.0392274796148682
20
4.5306540000000011
42
0.34188335158278871
10
-5.9883999999999995
20
4.4913000000000025
10
-5.3594436284981573
20
4.4913000000000034
42
-0.34211407050083531
10
-5.2892383239692258
20
4.4368960000000008
42
0.34211407050083564
10
-5.2383999999999995
20
4.3975000000000009
10
-4.609443628498159
20
4.3975000000000009
42
0.34211407050083564
10
-4.5586053045289336
20
4.436896
42
-0.34211407050082421
10
-4.4884000000000022
20
4.4913000000000007
10
-3.8633999999999999
20
4.4913000000000007
42
0.41421356237310675
10
-3.8109000000000006
20
4.5437999999999992
10
-3.8108999999999997
20
4.6063000000000018
42
-0.41421356237309509
10
-3.7384000000000004
20
4.6788000000000016
10
-3.1133999999999986
20
4.6788000000000034
42
-0.41421356237309509
10
-3.0408999999999984
20
4.6063000000000027
0
CIRCLE
5
102
100
AcDbEntity
8
0
100
AcDbCircle
10
-4.6698112022965672
20
2.0380186844834873
30
0
40
0.027500000000000246
0
CIRCLE
5
103
100
AcDbEntity
8
0
100
AcDbCircle
10
-7.0532231949053443
20
6.0793896049452565
30
0
40
0.027499999999999549
0
CIRCLE
5
104
100
AcDbEntity
8
0
100
AcDbCircle
10
-5.1820746244750877
20
2.0380186844834882
30
0
40
0.027500000000000246
0
CIRCLE
5
105
100
AcDbEntity
8
0
100
AcDbCircle
10
-6.8993813622047258
20
2.0353629921259913
30
0
40
0.027499999999999549
0
CIRCLE
5
106
100
AcDbEntity
8
0
100
AcDbCircle
10
-7.8090295496070246
20
4.7608933057002396
30
0
40
0.027499999999999549
0
CIRCLE
5
107
100
AcDbEntity
8
0
100
AcDbCircle
10
-2.952500787401577
20
2.0353629921259855
30
0
40
0.027499999999999893
0
CIRCLE
5
108
100
AcDbEntity
8
0
100
AcDbCircle
10
-4.7374769055118069
20
5.4122842519685062
30
0
40
0.027500000000000246
0
CIRCLE
5
109
100
AcDbEntity
8
0
100
AcDbCircle
10
-2.952500787401573
20
4.767264566929132
30
0
40
0.027499999999999893
0
LWPOLYLINE
5
110
100
AcDbEntity
8
0
100
AcDbPolyline
90
16
70
1
43
0.0
10
-7.128054131736457
20
6.1458278331111051
42
-0.42685872628771054
10
-7.0176012271545067
20
6.1729011263123938
42
0.1440625669469725
10
-4.7178011811023577
20
5.5106897637795305
42
-0.41421356237309509
10
-4.6390610236220438
20
5.4319496062992156
10
-4.6390610236220438
20
5.3381110236220488
42
0.41421356237309681
10
-4.1666200787401548
20
4.865670078740159
10
-2.9328250629921238
20
4.8656700787401572
42
-0.41421356237309637
10
-2.8540849055118089
20
4.7869299212598415
10
-2.8540849055118134
20
2.0156976377952751
42
-0.41421356237309109
10
-2.9328250629921278
20
1.9369574803149612
10
-6.919057086614175
20
1.9369574803149667
42
-0.41421356237309509
10
-6.9977972440944898
20
2.0156976377952813
10
-6.9977972440944853
20
4.1402569906884246
42
0.26795774423142449
10
-7.0371694992164286
20
4.2084492238526678
10
-7.875980129130741
20
4.6927010725359901
42
-0.41420447410600558
10
-7.9048056814655698
20
4.8002590920766446
0
ENDSEC
0
SECTION
2
OBJECTS
0
DICTIONARY
5
C
100
AcDbDictionary
3
ACAD_GROUP
350
D
3
ACAD_MLINESTYLE
350
17
0
DICTIONARY
5
D
100
AcDbDictionary
0
DICTIONARY
5
1A
330
C
100
AcDbDictionary
0
DICTIONARY
5
17
100
AcDbDictionary
0
ENDSEC
0
EOF
