0
SECTION
2
HEADER
9
$INSUNITS
70
1
9
$ACADVER
1
AC1014
9
$HANDSEED
5
FFFF
0
ENDSEC
0
SECTION
2
TABLES
0
TABLE
2
VPORT
5
8
100
AcDbSymbolTable
0
ENDTAB
0
TABLE
2
LTYPE
5
5
100
AcDbSymbolTable
0
LTYPE
5
14
100
AcDbSymbolTableRecord
100
AcDbLinetypeTableRecord
2
BYBLOCK
70
0
0
LTYPE
5
15
100
AcDbSymbolTableRecord
100
AcDbLinetypeTableRecord
2
BYLAYER
70
0
0
ENDTAB
0
TABLE
2
LAYER
5
2
100
AcDbSymbolTable
70
2
0
LAYER
5
50
100
AcDbSymbolTableRecord
100
AcDbLayerTableRecord
2
0
70
0
6
CONTINUOUS
0
ENDTAB
0
TABLE
2
STYLE
5
3
100
AcDbSymbolTable
70
1
0
STYLE
5
11
100
AcDbSymbolTableRecord
100
AcDbTextStyleTableRecord
2
STANDARD
70
0
0
ENDTAB
0
TABLE
2
VIEW
5
6
100
AcDbSymbolTable
70
0
0
ENDTAB
0
TABLE
2
UCS
5
7
100
AcDbSymbolTable
70
0
0
ENDTAB
0
TABLE
2
APPID
5
9
100
AcDbSymbolTable
70
2
0
APPID
5
12
100
AcDbSymbolTableRecord
100
AcDbRegAppTableRecord
2
ACAD
70
0
0
ENDTAB
0
TABLE
2
DIMSTYLE
5
A
100
AcDbSymbolTable
70
1
0
ENDTAB
0
TABLE
2
BLOCK_RECORD
5
1
100
AcDbSymbolTable
70
1
0
BLOCK_RECORD
5
1F
100
AcDbSymbolTableRecord
100
AcDbBlockTableRecord
2
*MODEL_SPACE
0
BLOCK_RECORD
5
1B
100
AcDbSymbolTableRecord
100
AcDbBlockTableRecord
2
*PAPER_SPACE
0
ENDTAB
0
ENDSEC
0
SECTION
2
BLOCKS
0
BLOCK
5
20
100
AcDbEntity
100
AcDbBlockBegin
2
*MODEL_SPACE
0
ENDBLK
5
21
100
AcDbEntity
100
AcDbBlockEnd
0
BLOCK
5
1C
100
AcDbEntity
100
AcDbBlockBegin
2
*PAPER_SPACE
0
ENDBLK
5
1D
100
AcDbEntity
100
AcDbBlockEnd
0
ENDSEC
0
SECTION
2
ENTITIES
0
CIRCLE
5
100
100
AcDbEntity
8
0
100
AcDbCircle
10
-2.604084905511812
20
2.7937999999999992
30
0
40
0.10050000000000012
0
CIRCLE
5
101
100
AcDbEntity
8
0
100
AcDbCircle
10
-7.5945410938774707
20
5.8377857675543874
30
0
40
0.10049999999999977
0
CIRCLE
5
102
100
AcDbEntity
8
0
100
AcDbCircle
10
-7.2477972440944898
20
2.5156976377953142
30
0
40
0.10049999999999977
0
CIRCLE
5
103
100
AcDbEntity
8
0
100
AcDbCircle
10
-4.7374769055118069
20
5.4122842519685062
30
0
40
0.041338582677165517
0
CIRCLE
5
104
100
AcDbEntity
8
0
100
AcDbCircle
10
-6.8993813622047258
20
2.0353629921259913
30
0
40
0.041338582677165517
0
CIRCLE
5
105
100
AcDbEntity
8
0
100
AcDbCircle
10
-2.952500787401577
20
2.0353629921259855
30
0
40
0.04133858267716517
0
CIRCLE
5
106
100
AcDbEntity
8
0
100
AcDbCircle
10
-7.0532231949053443
20
6.0793896049452565
30
0
40
0.041338582677165517
0
CIRCLE
5
107
100
AcDbEntity
8
0
100
AcDbCircle
10
-2.952500787401573
20
4.767264566929132
30
0
40
0.041338582677165517
0
CIRCLE
5
108
100
AcDbEntity
8
0
100
AcDbCircle
10
-7.8090295496070246
20
4.7608933057002396
30
0
40
0.041338582677165517
0
LWPOLYLINE
5
109
100
AcDbEntity
8
0
100
AcDbPolyline
90
57
70
1
43
0.0
10
-6.7602234396560688
20
2.3100204724409443
10
-6.5246401574803139
20
2.3100204724409439
10
-6.3312466734601553
20
2.1649753594258256
42
-0.23606797749975011
10
-6.3088466734601552
20
2.1201753594258257
10
-6.3088466734601552
20
1.9929574803149654
42
-0.41421356237308227
10
-6.3648466734601552
20
1.9369574803149652
10
-6.919057086614175
20
1.9369574803149661
42
-0.41421356237310281
10
-6.997797244094488
20
2.0156976377952813
42
0.41421356237305901
10
-7.2477972440944898
20
2.2656976377953146
42
-0.99999999999999989
10
-7.2477972440944898
20
2.7656976377953142
42
0.41415744895526652
10
-6.9977972486826854
20
3.0156497410473699
10
-6.997797244094488
20
4.1402569906884246
42
0.26795774423143454
10
-7.0371694992164286
20
4.208449223852667
10
-7.875980129130741
20
4.6927010725359901
42
-0.41420447410601402
10
-7.9048056814655698
20
4.8002590920766464
10
-7.6279996187167036
20
5.2797709585075454
42
0.4142135623730932
10
-7.7195274656225319
20
5.6212715489034988
42
-0.99999999999999989
10
-7.4695547221324086
20
6.0542999862052769
42
0.4142135623730932
10
-7.1280541317364552
20
6.1458278331111051
42
-0.42685872628771881
10
-7.0176012271545067
20
6.1729011263123921
42
0.14406256694697245
10
-4.7178011811023621
20
5.5106897637795313
42
-0.41421356237311319
10
-4.6390610236220438
20
5.4319496062992156
10
-4.6390610236220438
20
5.3381110236220488
42
0.41421356237309681
10
-4.1666200787401548
20
4.865670078740159
10
-2.9328250629921242
20
4.8656700787401572
42
-0.4142135623730977
10
-2.8540849055118085
20
4.7869299212598415
10
-2.8540849055118103
20
3.2937999999999983
42
0.41421356237309465
10
-2.6040849055118116
20
3.0437999999999992
42
-0.99999999999999989
10
-2.6040849055118125
20
2.5437999999999996
42
0.41421356237309465
10
-2.8540849055118125
20
2.2937999999999996
10
-2.8540849055118138
20
2.0156976377952751
42
-0.41421356237308854
10
-2.9328250629921278
20
1.9369574803149612
10
-3.9089354330708646
20
1.9369574803149621
42
-0.41421356237309864
10
-3.9649354330708642
20
1.9929574803149626
10
-3.9649354330708642
20
2.0275401574803147
10
-3.7624354330708649
20
2.0275401574803147
10
-3.7624354330708649
20
2.3387877678249103
42
-0.41421356237310131
10
-3.6974232008957753
20
2.4038000000000004
10
-3.09153719026519
20
2.4037999999999999
42
0.41421356237309875
10
-3.0358999999999989
20
2.4594371902651906
10
-3.0358999999999989
20
4.6281197495964541
10
-3.0359806640944456
20
4.6282004814758544
10
-3.0358999999999994
20
4.6281665004364232
42
0.41421356237310053
10
-3.0915334995635741
20
4.6837999999999989
10
-4.3809471691827797
20
4.6837999999999989
42
-0.26203450538254297
10
-4.4482512254748672
20
4.7216723656797246
10
-4.803343003677492
20
5.3064633704303761
42
0.22906566470091472
10
-4.8608795358562906
20
5.3437275687024908
10
-6.3114980207442413
20
5.5250739163014764
42
-0.1000520065909157
10
-6.3410766867474981
20
5.5350011431729387
10
-6.9329946700912597
20
5.8764687535409736
42
0.4111555503225085
10
-7.0219060963851208
20
5.8531090365564102
10
-7.6332934135656298
20
4.818435345754863
42
0.4147912918415268
10
-7.610199991330397
20
4.7289961912058267
10
-6.873793641206718
20
4.2958117048139028
42
-0.26577205262483838
10
-6.8158999999999965
20
4.1945889918983648
10
-6.8158999999999983
20
2.3656970327848761
42
0.41421356237312257
0
CIRCLE
5
110
100
AcDbEntity
8
0
100
AcDbCircle
10
-2.604084905511812
20
2.7937999999999992
30
0
40
0.10050000000000012
0
CIRCLE
5
111
100
AcDbEntity
8
0
100
AcDbCircle
10
-7.5945410938774707
20
5.8377857675543874
30
0
40
0.10049999999999977
0
CIRCLE
5
112
100
AcDbEntity
8
0
100
AcDbCircle
10
-7.2477972440944898
20
2.5156976377953142
30
0
40
0.10049999999999977
0
CIRCLE
5
113
100
AcDbEntity
8
0
100
AcDbCircle
10
-4.7374769055118069
20
5.4122842519685062
30
0
40
0.041338582677165517
0
CIRCLE
5
114
100
AcDbEntity
8
0
100
AcDbCircle
10
-6.8993813622047258
20
2.0353629921259913
30
0
40
0.041338582677165517
0
CIRCLE
5
115
100
AcDbEntity
8
0
100
AcDbCircle
10
-2.952500787401577
20
2.0353629921259855
30
0
40
0.04133858267716517
0
CIRCLE
5
116
100
AcDbEntity
8
0
100
AcDbCircle
10
-7.0532231949053443
20
6.0793896049452565
30
0
40
0.041338582677165517
0
CIRCLE
5
117
100
AcDbEntity
8
0
100
AcDbCircle
10
-2.952500787401573
20
4.767264566929132
30
0
40
0.041338582677165517
0
CIRCLE
5
118
100
AcDbEntity
8
0
100
AcDbCircle
10
-7.8090295496070246
20
4.7608933057002396
30
0
40
0.041338582677165517
0
LWPOLYLINE
5
119
100
AcDbEntity
8
0
100
AcDbPolyline
90
57
70
1
43
0.0
10
-6.5246401574803139
20
2.3100204724409439
10
-6.7602234396560688
20
2.3100204724409452
42
-0.41421356237311713
10
-6.8158999999999983
20
2.3656970327848761
10
-6.8158999999999965
20
4.1945889918983648
42
0.26577205262483838
10
-6.873793641206718
20
4.2958117048139028
10
-7.610199991330397
20
4.7289961912058267
42
-0.4147912918415268
10
-7.6332934135656298
20
4.818435345754863
10
-7.0219060963851208
20
5.8531090365564102
42
-0.41115555032249151
10
-6.9329946700912597
20
5.8764687535409736
10
-6.3410766867474981
20
5.5350011431729387
42
0.10005200659091569
10
-6.3114980207442413
20
5.5250739163014764
10
-4.8608795358562906
20
5.3437275687024908
42
-0.22906566470091019
10
-4.803343003677492
20
5.3064633704303761
10
-4.4482512254748672
20
4.7216723656797246
42
0.26203450538254286
10
-4.3809471691827797
20
4.6837999999999989
10
-3.0915334995635741
20
4.6837999999999989
42
-0.41421356237309875
10
-3.0358999999999994
20
4.6281665004364232
10
-3.0359806640944456
20
4.6282004814758544
10
-3.0358999999999989
20
4.6281197495964541
10
-3.0358999999999989
20
2.4594371902651906
42
-0.41421356237309875
10
-3.09153719026519
20
2.4037999999999999
10
-3.6974232008957753
20
2.4038000000000004
42
0.41421356237310131
10
-3.7624354330708649
20
2.3387877678249103
10
-3.7624354330708649
20
2.0275401574803151
10
-3.9649354330708642
20
2.0275401574803151
10
-3.964935433070865
20
1.9929574803149626
42
0.41421356237309864
10
-3.9089354330708646
20
1.9369574803149618
10
-2.9328250629921278
20
1.9369574803149607
42
0.41421356237308854
10
-2.8540849055118129
20
2.0156976377952751
10
-2.854084905511812
20
2.2937999999999996
42
-0.4142135623730942
10
-2.6040849055118125
20
2.5437999999999992
42
0.99999999999999989
10
-2.6040849055118116
20
3.0437999999999987
42
-0.41421356237309465
10
-2.8540849055118103
20
3.2937999999999983
10
-2.8540849055118089
20
4.7869299212598424
42
0.41421356237309509
10
-2.9328250629921242
20
4.8656700787401563
10
-4.1666200787401548
20
4.865670078740159
42
-0.41421356237309681
10
-4.6390610236220438
20
5.3381110236220488
10
-4.6390610236220446
20
5.4319496062992156
42
0.41421356237311846
10
-4.7178011811023621
20
5.5106897637795322
42
-0.14406256694697295
10
-7.0176012271545067
20
6.1729011263123965
42
0.42685872628771065
10
-7.1280541317364596
20
6.1458278331111078
42
-0.41421356237309725
10
-7.4695547221324086
20
6.0542999862052778
42
0.99999999999999989
10
-7.7195274656225328
20
5.6212715489034979
42
-0.41421356237309659
10
-7.6279996187167036
20
5.2797709585075454
10
-7.9048056814655716
20
4.8002590920766455
42
0.41420447410600791
10
-7.8759801291307427
20
4.6927010725359901
10
-7.0371694992164286
20
4.2084492238526678
42
-0.26795774423145569
10
-6.997797244094488
20
4.1402569906884246
10
-6.9977972486826854
20
3.0156497410473699
42
-0.41415744895526901
10
-7.2477972440944898
20
2.7656976377953151
42
0.99999999999999989
10
-7.2477972440945067
20
2.2656976377953133
42
-0.41421356237308116
10
-6.997797244094488
20
2.0156976377952813
42
0.41421356237310281
10
-6.919057086614175
20
1.9369574803149667
10
-6.3648466734601552
20
1.9369574803149652
42
0.41421356237308044
10
-6.3088466734601552
20
1.992957480314965
10
-6.3088466734601552
20
2.1201753594258257
42
0.23606797749975114
10
-6.3312466734601553
20
2.1649753594258261
0
CIRCLE
5
120
100
AcDbEntity
8
0
100
AcDbCircle
10
-5.1820746244750877
20
2.0380186844834882
30
0
40
0.041338582677165517
0
CIRCLE
5
121
100
AcDbEntity
8
0
100
AcDbCircle
10
-4.6698112022965672
20
2.0380186844834873
30
0
40
0.041338582677165517
0
LWPOLYLINE
5
122
100
AcDbEntity
8
0
100
AcDbPolyline
90
9
70
1
43
0.0
10
-5.7943676151669425
20
1.9929574803149637
10
-5.7943676151669434
20
2.0665401574803139
42
-0.41421356237310231
10
-5.7383676151669443
20
2.1225401574803149
10
-4.5274354330708642
20
2.1225401574803149
10
-4.5274354330708642
20
2.0275401574803147
10
-4.3399354330708642
20
2.0275401574803147
10
-4.3399354330708642
20
1.9929574803149632
42
-0.41421356237310047
10
-4.3959354330708642
20
1.9369574803149636
10
-5.7383676151669434
20
1.9369574803149636
42
-0.41421356237311147
0
ENDSEC
0
SECTION
2
OBJECTS
0
DICTIONARY
5
C
100
AcDbDictionary
3
ACAD_GROUP
350
D
3
ACAD_MLINESTYLE
350
17
0
DICTIONARY
5
D
100
AcDbDictionary
0
DICTIONARY
5
1A
330
C
100
AcDbDictionary
0
DICTIONARY
5
17
100
AcDbDictionary
0
ENDSEC
0
EOF
