  0
SECTION
  2
HEADER
  9
$ACADVER
  1
AC1009
  9
$INSBASE
 10
0.0
 20
0.0
 30
0.0
  9
$EXTMIN
 10
0.0
 20
0.0
 30
0.0
  9
$EXTMAX
 10
8.5780429189084391
 20
9.0357807986910501
 30
0.0
  9
$LIMMIN
 10
0.0
 20
0.0
  9
$LIMMAX
 10
8.5780429189084391
 20
9.0357807986910501
  9
$ORTHOMODE
 70
     0
  9
$REGENMODE
 70
     1
  9
$FILLMODE
 70
     1
  9
$QTEXTMODE
 70
     0
  9
$MIRRTEXT
 70
     0
  9
$DRAGMODE
 70
     2
  9
$LTSCALE
 40
1.0
  9
$OSMODE
 70
     0
  9
$ATTMODE
 70
     1
  9
$TEXTSIZE
 40
0.2
  9
$TRACEWID
 40
0.05
  9
$TEXTSTYLE
  7
STANDARD
  9
$CLAYER
  8
0
  9
$CELTYPE
  6
BYLAYER
  9
$CECOLOR
 62
   256
  9
$DIMSCALE
 40
1.0
  9
$DIMASZ
 40
0.0708661417322835
  9
$DIMEXO
 40
0.0625
  9
$DIMDLI
 40
0.38
  9
$DIMRND
 40
0.0
  9
$DIMDLE
 40
0.0
  9
$DIMEXE
 40
0.18
  9
$DIMTP
 40
0.0
  9
$DIMTM
 40
0.0
  9
$DIMTXT
 40
0.0708661417322835
  9
$DIMCEN
 40
0.09
  9
$DIMTSZ
 40
0.0
  9
$DIMTOL
 70
     0
  9
$DIMLIM
 70
     0
  9
$DIMTIH
 70
     1
  9
$DIMTOH
 70
     1
  9
$DIMSE1
 70
     0
  9
$DIMSE2
 70
     0
  9
$DIMTAD
 70
     0
  9
$DIMZIN
 70
     0
  9
$DIMBLK
  1

  9
$DIMASO
 70
     1
  9
$DIMSHO
 70
     1
  9
$DIMPOST
  1

  9
$DIMAPOST
  1

  9
$DIMALT
 70
     0
  9
$DIMALTD
 70
     2
  9
$DIMALTF
 40
25.399999999999999
  9
$DIMLFAC
 40
1.0
  9
$DIMTOFL
 70
     0
  9
$DIMTVP
 40
0.0
  9
$DIMTIX
 70
     0
  9
$DIMSOXD
 70
     0
  9
$DIMSAH
 70
     0
  9
$DIMBLK1
  1

  9
$DIMBLK2
  1

  9
$DIMSTYLE
  2
STANDARD
  9
$DIMCLRD
 70
     0
  9
$DIMCLRE
 70
     0
  9
$DIMCLRT
 70
     0
  9
$DIMTFAC
 40
1.0
  9
$DIMGAP
 40
0.09
  9
$LUNITS
 70
     2
  9
$LUPREC
 70
     4
  9
$SKETCHINC
 40
0.1
  9
$FILLETRAD
 40
0.0
  9
$AUNITS
 70
     0
  9
$AUPREC
 70
     0
  9
$MENU
  1
.
  9
$ELEVATION
 40
0.0
  9
$PELEVATION
 40
0.0
  9
$THICKNESS
 40
0.0
  9
$LIMCHECK
 70
     0
  9
$BLIPMODE
 70
     0
  9
$CHAMFERA
 40
0.0
  9
$CHAMFERB
 40
0.0
  9
$SKPOLY
 70
     0
  9
$TDCREATE
 40
2457596.3914273032
  9
$TDUPDATE
 40
2457596.3914273032
  9
$TDINDWG
 40
0.0000035995
  9
$TDUSRTIMER
 40
0.0000035995
  9
$USRTIMER
 70
     1
  9
$ANGBASE
 50
0.0
  9
$ANGDIR
 70
     0
  9
$PDMODE
 70
     0
  9
$PDSIZE
 40
0.0
  9
$PLINEWID
 40
0.0
  9
$COORDS
 70
     0
  9
$SPLFRAME
 70
     0
  9
$SPLINETYPE
 70
     6
  9
$SPLINESEGS
 70
     8
  9
$ATTDIA
 70
     1
  9
$ATTREQ
 70
     1
  9
$HANDLING
 70
     1
  9
$HANDSEED
  5
240
  9
$SURFTAB1
 70
     6
  9
$SURFTAB2
 70
     6
  9
$SURFTYPE
 70
     6
  9
$SURFU
 70
     6
  9
$SURFV
 70
     6
  9
$UCSNAME
  2

  9
$UCSORG
 10
0.0
 20
0.0
 30
0.0
  9
$UCSXDIR
 10
1.0
 20
0.0
 30
0.0
  9
$UCSYDIR
 10
0.0
 20
1.0
 30
0.0
  9
$PUCSNAME
  2

  9
$PUCSORG
 10
0.0
 20
0.0
 30
0.0
  9
$PUCSXDIR
 10
1.0
 20
0.0
 30
0.0
  9
$PUCSYDIR
 10
0.0
 20
1.0
 30
0.0
  9
$USERI1
 70
     0
  9
$USERI2
 70
     0
  9
$USERI3
 70
     0
  9
$USERI4
 70
     0
  9
$USERI5
 70
     0
  9
$USERR1
 40
0.0
  9
$USERR2
 40
0.0
  9
$USERR3
 40
0.0
  9
$USERR4
 40
0.0
  9
$USERR5
 40
0.0
  9
$WORLDVIEW
 70
     1
  9
$SHADEDGE
 70
     3
  9
$SHADEDIF
 70
    70
  9
$TILEMODE
 70
     1
  9
$MAXACTVP
 70
    64
  9
$PLIMCHECK
 70
     0
  9
$PEXTMIN
 10
0.0
 20
0.0
 30
0.0
  9
$PEXTMAX
 10
8.5780429189084391
 20
9.0357807986910501
 30
0.0
  9
$PLIMMIN
 10
0.0
 20
0.0
  9
$PLIMMAX
 10
8.5780429189084391
 20
9.0357807986910501
  9
$UNITMODE
 70
     0
  9
$VISRETAIN
 70
     1
  9
$PLINEGEN
 70
     0
  9
$PSLTSCALE
 70
     1
  0
ENDSEC
  0
SECTION
  2
TABLES
  0
TABLE
  2
VPORT
 70
     1
  0
VPORT
  2
*ACTIVE
 70
     0
 10
0.0
 20
0.0
 11
1.0
 21
1.0
 12
-0.439909418885542
 22
-2.3906200746621469
 13
0.0
 23
0.0
 14
1.0
 24
1.0
 15
0.0
 25
0.0
 16
0.0
 26
0.0
 36
1.0
 17
0.0
 27
0.0
 37
0.0
 40
9.0357807986910501
 41
0.9493416352188488
 42
50.0
 43
0.0
 44
0.0
 50
0.0
 51
0.0
 71
     0
 72
   100
 73
     1
 74
     1
 75
     0
 76
     0
 77
     0
 78
     0
  0
ENDTAB
  0
TABLE
  2
LTYPE
 70
    59
  0
LTYPE
  2
CONTINUOUS
 70
     0
  3
Solid line
 72
    65
 73
     0
 40
0.0
  0
LTYPE
  2
BY_STANDARD
 70
     0
  3
By Standard ____________    ____    ____   _
 72
    65
 73
     6
 40
1.2402999999999991
 49
0.6614
 49
-0.0827
 49
0.1654
 49
-0.0827
 49
0.1654
 49
-0.0827
  0
LTYPE
  2
CHAIN
 70
     0
  3
Chain ____ _ ____ _ ____ _ ____ _ ____ _ ____
 72
    65
 73
     4
 40
0.7087
 49
0.4724000000000001
 49
-0.0591
 49
0.1181
 49
-0.0591
  0
LTYPE
  2
DASH_DOT
 70
     0
  3
Dash dot __ . __ . __ . __ . __ . __ . __ . __
 72
    65
 73
     4
 40
0.37
 49
0.24
 49
-0.06
 49
0.01
 49
-0.06
  0
LTYPE
  2
DOUBLE_DASH_DOT
 70
     0
  3
Double-Dash Dot __ __ . __ __ . __ __ . __ _
 72
    65
 73
     6
 40
0.4398
 49
0.24
 49
-0.06
 49
0.0098
 49
-0.06
 49
0.01
 49
-0.06
  0
LTYPE
  2
DASH_TRIPLE_DOT
 70
     0
  3
Dash Triple-Dot _ . . . _ . . . _ . . . _
 72
    65
 73
     8
 40
0.51
 49
0.24
 49
-0.06
 49
0.01
 49
-0.06
 49
0.01
 49
-0.06
 49
0.01
 49
-0.06
  0
LTYPE
  2
DASHED
 70
     0
  3
Dashed __ __ __ __ __ __ __ __ __ __ __ __ __ _
 72
    65
 73
     2
 40
0.2067
 49
0.1654
 49
-0.0413
  0
LTYPE
  2
DASH_DOUBLE_DOT
 70
     0
  3
Dash Double-Dot __ . . __ . . __ . . __ . .
 72
    65
 73
     6
 40
0.4398
 49
0.24
 49
-0.06
 49
0.0098
 49
-0.06
 49
0.01
 49
-0.06
  0
LTYPE
  2
DASHED_SPACE
 70
     0
  3
Dashed Space __ __ __ __ __ __ __ __ __ __ __ _
 72
    65
 73
     2
 40
0.2067
 49
0.1654
 49
-0.0413
  0
LTYPE
  2
DOTTED
 70
     0
  3
Dotted . . . . . . . . . . . . . . . . . . . . 
 72
    65
 73
     2
 40
0.0482
 49
0.0069
 49
-0.0413
  0
LTYPE
  2
DOUBLE_DASH_CHAIN
 70
     0
  3
Double-Dash Chain ______  __  __  ______  __  _
 72
    65
 73
     6
 40
1.2402999999999991
 49
0.6614
 49
-0.0827
 49
0.1654
 49
-0.0827
 49
0.1654
 49
-0.0827
  0
LTYPE
  2
DOUBLE_DASH_DOUBLE_DOT
 70
     0
  3
Double-Dash Double-dot _ _ . . _ _ . . _
 72
    65
 73
     8
 40
0.7400000000000001
 49
0.24
 49
-0.06
 49
0.24
 49
-0.06
 49
0.01
 49
-0.06
 49
0.01
 49
-0.06
  0
LTYPE
  2
DOUBLE_DASH_TRIPLE_DOT
 70
     0
  3
Double Dash Triple Dot __ __ . . . __ __ . .
 72
    65
 73
    10
 40
0.8100000000000001
 49
0.24
 49
-0.06
 49
0.24
 49
-0.06
 49
0.01
 49
-0.06
 49
0.01
 49
-0.06
 49
0.01
 49
-0.06
  0
LTYPE
  2
LONG_DASH_DOTTED
 70
     0
  3
Long Dash Dotted ____ . ____ . ____ . ____ . _
 72
    65
 73
     4
 40
0.3543
 49
0.2362
 49
-0.0295
 49
0.0591
 49
-0.0295
  0
LTYPE
  2
LONG_DASH_DOUBLE_DOT
 70
     0
  3
Long Dash Double Dot ________  .  .  ________  
 72
    65
 73
     6
 40
0.6799999999999999
 49
0.48
 49
-0.06
 49
0.01
 49
-0.06
 49
0.01
 49
-0.06
  0
LTYPE
  2
LONG_DASH_TRIPLE_DOT
 70
     0
  3
Long Dash Triple Dot ____ ... ____ ... ____
 72
    65
 73
     8
 40
0.3689
 49
0.2362
 49
-0.0295
 49
0.0049
 49
-0.0295
 49
0.0049
 49
-0.0295
 49
0.0049
 49
-0.0295
  0
LTYPE
  2
BORDER
 70
     0
  3
Border __ __ . __ __ . __ __ . __ __ . __ __ .
 72
    65
 73
     6
 40
1.75
 49
0.5
 49
-0.25
 49
0.5
 49
-0.25
 49
0.0
 49
-0.25
  0
LTYPE
  2
BORDER2
 70
     0
  3
Border (.5x) __.__.__.__.__.__.__.__.__.__.__.
 72
    65
 73
     6
 40
0.875
 49
0.25
 49
-0.125
 49
0.25
 49
-0.125
 49
0.0
 49
-0.125
  0
LTYPE
  2
BORDERX2
 70
     0
  3
Border (2x) ____  ____  .  ____  ____  .  ___
 72
    65
 73
     6
 40
3.5
 49
1.0
 49
-0.5
 49
1.0
 49
-0.5
 49
0.0
 49
-0.5
  0
LTYPE
  2
CENTER
 70
     0
  3
Center ____ _ ____ _ ____ _ ____ _ ____ _ ____
 72
    65
 73
     4
 40
2.0
 49
1.25
 49
-0.25
 49
0.25
 49
-0.25
  0
LTYPE
  2
CENTER2
 70
     0
  3
Center (.5x) ___ _ ___ _ ___ _ ___ _ ___ _ ___
 72
    65
 73
     4
 40
1.125
 49
0.75
 49
-0.125
 49
0.125
 49
-0.125
  0
LTYPE
  2
CENTERX2
 70
     0
  3
Center (2x) ________  __  ________  __  _____
 72
    65
 73
     4
 40
4.0
 49
2.5
 49
-0.5
 49
0.5
 49
-0.5
  0
LTYPE
  2
DASHDOT2
 70
     0
  3
Dash dot (.5x) _._._._._._._._._._._._._._._.
 72
    65
 73
     4
 40
0.5
 49
0.25
 49
-0.125
 49
0.0
 49
-0.125
  0
LTYPE
  2
DASHDOTX2
 70
     0
  3
Dash dot (2x) ____  .  ____  .  ____  .  ___
 72
    65
 73
     4
 40
2.0
 49
1.0
 49
-0.5
 49
0.0
 49
-0.5
  0
LTYPE
  2
DASHED2
 70
     0
  3
Dashed (.5x) _ _ _ _ _ _ _ _ _ _ _ _ _ _ _ _ _
 72
    65
 73
     2
 40
0.375
 49
0.25
 49
-0.125
  0
LTYPE
  2
DASHEDX2
 70
     0
  3
Dashed (2x) ____  ____  ____  ____  ____  ___
 72
    65
 73
     2
 40
1.5
 49
1.0
 49
-0.5
  0
LTYPE
  2
DIVIDE
 70
     0
  3
Divide ____ . . ____ . . ____ . . ____ . . ____
 72
    65
 73
     6
 40
1.25
 49
0.5
 49
-0.25
 49
0.0
 49
-0.25
 49
0.0
 49
-0.25
  0
LTYPE
  2
DIVIDE2
 70
     0
  3
Divide (.5x) __..__..__..__..__..__..__..__.._
 72
    65
 73
     6
 40
0.625
 49
0.25
 49
-0.125
 49
0.0
 49
-0.125
 49
0.0
 49
-0.125
  0
LTYPE
  2
DIVIDEX2
 70
     0
  3
Divide (2x) ________  .  .  ________  .  .  _
 72
    65
 73
     6
 40
2.5
 49
1.0
 49
-0.5
 49
0.0
 49
-0.5
 49
0.0
 49
-0.5
  0
LTYPE
  2
DOT
 70
     0
  3
Dot . . . . . . . . . . . . . . . . . . . . . .
 72
    65
 73
     2
 40
0.25
 49
0.0
 49
-0.25
  0
LTYPE
  2
DOT2
 70
     0
  3
Dot (.5x) .....................................
 72
    65
 73
     2
 40
0.125
 49
0.0
 49
-0.125
  0
LTYPE
  2
DOTX2
 70
     0
  3
Dot (2x) .  .  .  .  .  .  .  .  .  .  .  .  . 
 72
    65
 73
     2
 40
0.5
 49
0.0
 49
-0.5
  0
LTYPE
  2
HIDDEN
 70
     0
  3
Hidden __ __ __ __ __ __ __ __ __ __ __ __ __ _
 72
    65
 73
     2
 40
0.375
 49
0.25
 49
-0.125
  0
LTYPE
  2
HIDDEN2
 70
     0
  3
Hidden (.5x) _ _ _ _ _ _ _ _ _ _ _ _ _ _ _ _ _
 72
    65
 73
     2
 40
0.1875
 49
0.125
 49
-0.0625
  0
LTYPE
  2
HIDDENX2
 70
     0
  3
Hidden (2x) ____ ____ ____ ____ ____ ____ ____
 72
    65
 73
     2
 40
0.75
 49
0.5
 49
-0.25
  0
LTYPE
  2
PHANTOM
 70
     0
  3
Phantom ______  __  __  ______  __  __  ______
 72
    65
 73
     6
 40
2.5
 49
1.25
 49
-0.25
 49
0.25
 49
-0.25
 49
0.25
 49
-0.25
  0
LTYPE
  2
PHANTOM2
 70
     0
  3
Phantom (.5x) ___ _ _ ___ _ _ ___ _ _ ___ _ _
 72
    65
 73
     6
 40
1.25
 49
0.625
 49
-0.125
 49
0.125
 49
-0.125
 49
0.125
 49
-0.125
  0
LTYPE
  2
PHANTOMX2
 70
     0
  3
Phantom (2x) ____________    ____    ____   _
 72
    65
 73
     6
 40
5.0
 49
2.5
 49
-0.5
 49
0.5
 49
-0.5
 49
0.5
 49
-0.5
  0
LTYPE
  2
ACAD_ISO02W100
 70
     0
  3
ISO dash __ __ __ __ __ __ __ __ __ __ __ __ __
 72
    65
 73
     2
 40
0.59
 49
0.47
 49
-0.12
  0
LTYPE
  2
ACAD_ISO03W100
 70
     0
  3
ISO dash space __    __    __    __    __    __
 72
    65
 73
     2
 40
1.179999999999999
 49
0.47
 49
-0.71
  0
LTYPE
  2
ACAD_ISO04W100
 70
     0
  3
ISO long-dash dot ____ . ____ . ____ . ____ . _
 72
    65
 73
     4
 40
1.179999999999999
 49
0.9399999999999998
 49
-0.12
 49
0.0
 49
-0.12
  0
LTYPE
  2
ACAD_ISO05W100
 70
     0
  3
ISO long-dash double-dot ____ .. ____ .. ____ .
 72
    65
 73
     6
 40
1.2999999999999989
 49
0.9399999999999998
 49
-0.12
 49
0.0
 49
-0.12
 49
0.0
 49
-0.12
  0
LTYPE
  2
ACAD_ISO06W100
 70
     0
  3
ISO long-dash triple-dot ____ ... ____ ... ____
 72
    65
 73
     8
 40
1.419999999999999
 49
0.9399999999999998
 49
-0.12
 49
0.0
 49
-0.12
 49
0.0
 49
-0.12
 49
0.0
 49
-0.12
  0
LTYPE
  2
ACAD_ISO07W100
 70
     0
  3
ISO dot . . . . . . . . . . . . . . . . . . . .
 72
    65
 73
     2
 40
0.12
 49
0.0
 49
-0.12
  0
LTYPE
  2
ACAD_ISO08W100
 70
     0
  3
ISO long-dash short-dash ____ __ ____ __ ____ _
 72
    65
 73
     4
 40
0.95
 49
0.47
 49
-0.12
 49
0.24
 49
-0.12
  0
LTYPE
  2
ACAD_ISO09W100
 70
     0
  3
ISO long-dash double-short-dash ____ __ __ ____
 72
    65
 73
     6
 40
1.3100000000000001
 49
0.47
 49
-0.12
 49
0.24
 49
-0.12
 49
0.24
 49
-0.12
  0
LTYPE
  2
ACAD_ISO10W100
 70
     0
  3
ISO dash dot __ . __ . __ . __ . __ . __ . __ .
 72
    65
 73
     4
 40
0.71
 49
0.47
 49
-0.12
 49
0.0
 49
-0.12
  0
LTYPE
  2
ACAD_ISO11W100
 70
     0
  3
ISO double-dash dot __ __ . __ __ . __ __ . __ 
 72
    65
 73
     6
 40
1.2999999999999989
 49
0.47
 49
-0.12
 49
0.47
 49
-0.12
 49
0.0
 49
-0.12
  0
LTYPE
  2
ACAD_ISO12W100
 70
     0
  3
ISO dash double-dot __ . . __ . . __ . . __ . .
 72
    65
 73
     6
 40
0.8299999999999999
 49
0.47
 49
-0.12
 49
0.0
 49
-0.12
 49
0.0
 49
-0.12
  0
LTYPE
  2
ACAD_ISO13W100
 70
     0
  3
ISO double-dash double-dot __ __ . . __ __ . . 
 72
    65
 73
     8
 40
1.419999999999999
 49
0.47
 49
-0.12
 49
0.47
 49
-0.12
 49
0.0
 49
-0.12
 49
0.0
 49
-0.12
  0
LTYPE
  2
ACAD_ISO14W100
 70
     0
  3
ISO dash triple-dot __ . . . __ . . . __ . . . 
 72
    65
 73
     8
 40
0.95
 49
0.47
 49
-0.12
 49
0.0
 49
-0.12
 49
0.0
 49
-0.12
 49
0.0
 49
-0.12
  0
LTYPE
  2
ACAD_ISO15W100
 70
     0
  3
ISO double-dash triple-dot __ __ . . . __ __ . 
 72
    65
 73
    10
 40
1.5399999999999989
 49
0.47
 49
-0.12
 49
0.47
 49
-0.12
 49
0.0
 49
-0.12
 49
0.0
 49
-0.12
 49
0.0
 49
-0.12
  0
LTYPE
  2
FENCELINE1
 70
     0
  3
Fenceline circle ----0-----0----0-----0----0---
 72
    65
 73
     4
 40
1.45
 49
0.25
 49
-0.1
 49
-0.1
 49
1.0
  0
LTYPE
  2
FENCELINE2
 70
     0
  3
Fenceline square ----[]-----[]----[]-----[]----
 72
    65
 73
     4
 40
1.45
 49
0.25
 49
-0.1
 49
-0.1
 49
1.0
  0
LTYPE
  2
TRACKS
 70
     0
  3
Tracks -|-|-|-|-|-|-|-|-|-|-|-|-|-|-|-|-|-|-|-|
 72
    65
 73
     2
 40
0.3
 49
0.15
 49
0.15
  0
LTYPE
  2
BATTING
 70
     0
  3
Batting SSSSSSSSSSSSSSSSSSSSSSSSSSSSSSSSSSSSSSS
 72
    65
 73
     4
 40
0.4001000000000001
 49
0.0001
 49
-0.1
 49
-0.2
 49
-0.1
  0
LTYPE
  2
HOT_WATER_SUPPLY
 70
     0
  3
Hot water supply ---- HW ---- HW ---- HW ----
 72
    65
 73
     3
 40
0.9
 49
0.5
 49
-0.2
 49
-0.2
  0
LTYPE
  2
GAS_LINE
 70
     0
  3
Gas line ----GAS----GAS----GAS----GAS----GAS---
 72
    65
 73
     3
 40
0.95
 49
0.5
 49
-0.2
 49
-0.25
  0
LTYPE
  2
ZIGZAG
 70
     0
  3
Zig zag /\/\/\/\/\/\/\/\/\/\/\/\/\/\/\/\/\/\/\/
 72
    65
 73
     4
 40
0.8001000000000001
 49
0.0001
 49
-0.2
 49
-0.4
 49
-0.2
  0
ENDTAB
  0
TABLE
  2
LAYER
 70
     1
  0
LAYER
  2
0
 70
     0
 62
     7
  6
CONTINUOUS
  0
ENDTAB
  0
TABLE
  2
STYLE
 70
     3
  0
STYLE
  2
STANDARD
 70
     0
 40
0.0
 41
1.0
 50
0.0
 71
     0
 42
0.2
  3
txt
  4

  0
STYLE
  2
ANNOTATIVE
 70
     0
 40
0.0
 41
1.0
 50
0.0
 71
     0
 42
0.2
  3
txt
  4

  0
STYLE
  2

 70
     1
 40
0.0
 41
1.0
 50
0.0
 71
     0
 42
0.2
  3
ltypeshp.shx
  4

  0
ENDTAB
  0
TABLE
  2
VIEW
 70
     0
  0
ENDTAB
  0
TABLE
  2
UCS
 70
     0
  0
ENDTAB
  0
TABLE
  2
APPID
 70
     3
  0
APPID
  2
ACAD
 70
     0
  0
APPID
  2
ACADANNOTATIVE
 70
     0
  0
APPID
  2
ACAD_MLEADERVER
 70
     0
  0
ENDTAB
  0
TABLE
  2
DIMSTYLE
 70
     2
  0
DIMSTYLE
  2
STANDARD
 70
     0
  3

  4

  5

  6

  7

 40
1.0
 41
0.18
 42
0.0625
 43
0.38
 44
0.18
 45
0.0
 46
0.0
 47
0.0
 48
0.0
140
0.18
141
0.09
142
0.0
143
25.399999999999999
144
1.0
145
0.0
146
1.0
147
0.09
 71
     0
 72
     0
 73
     1
 74
     1
 75
     0
 76
     0
 77
     0
 78
     0
170
     0
171
     2
172
     0
173
     0
174
     0
175
     0
176
     0
177
     0
178
     0
  0
DIMSTYLE
  2
ANNOTATIVE
 70
     0
  3

  4

  5

  6

  7

 40
1.0
 41
0.18
 42
0.0625
 43
0.38
 44
0.18
 45
0.0
 46
0.0
 47
0.0
 48
0.0
140
0.18
141
0.09
142
0.0
143
25.399999999999999
144
1.0
145
0.0
146
1.0
147
0.09
 71
     0
 72
     0
 73
     1
 74
     1
 75
     0
 76
     0
 77
     0
 78
     0
170
     0
171
     2
172
     0
173
     0
174
     0
175
     0
176
     0
177
     0
178
     0
  0
ENDTAB
  0
ENDSEC
  0
SECTION
  2
BLOCKS
  0
BLOCK
  8
0
  2
$MODEL_SPACE
 70
     0
 10
0.0
 20
0.0
 30
0.0
  3
$MODEL_SPACE
  1

  0
ENDBLK
  5
72
  8
0
  0
BLOCK
 67
     1
  8
0
  2
$PAPER_SPACE
 70
     0
 10
0.0
 20
0.0
 30
0.0
  3
$PAPER_SPACE
  1

  0
ENDBLK
  5
6E
 67
     1
  8
0
  0
ENDSEC
  0
SECTION
  2
ENTITIES
  0
POLYLINE
  5
B6
  8
0
 66
     1
 10
0.0
 20
0.0
 30
0.0
 70
     1
  0
VERTEX
  5
B7
  8
0
 10
1.376968503937009
 20
-2.55708661417323
 30
0.0
  0
VERTEX
  5
B8
  8
0
 10
0.8730314960629936
 20
-2.55708661417323
 30
0.0
  0
VERTEX
  5
BA
  8
0
 10
0.8730314960629936
 20
-2.5255905511811041
 30
0.0
  0
VERTEX
  5
BB
  8
0
 10
0.8494094488188984
 20
-2.5255905511811041
 30
0.0
  0
VERTEX
  5
BC
  8
0
 10
0.8494094488188984
 20
-1.974409448818899
 30
0.0
  0
VERTEX
  5
BD
  8
0
 10
0.8730314960629936
 20
-1.974409448818899
 30
0.0
  0
VERTEX
  5
BE
  8
0
 10
0.8730314960629936
 20
-1.9429133858267731
 30
0.0
  0
VERTEX
  5
BF
  8
0
 10
1.376968503937009
 20
-1.9429133858267731
 30
0.0
  0
VERTEX
  5
C0
  8
0
 10
1.376968503937009
 20
-1.974409448818899
 30
0.0
  0
VERTEX
  5
C1
  8
0
 10
1.4005905511811021
 20
-1.974409448818899
 30
0.0
  0
VERTEX
  5
C2
  8
0
 10
1.4005905511811021
 20
-2.5255905511811041
 30
0.0
  0
VERTEX
  5
C3
  8
0
 10
1.376968503937009
 20
-2.5255905511811041
 30
0.0
  0
SEQEND
  5
B9
  8
0
  0
POLYLINE
  5
C5
  8
0
 66
     1
 10
0.0
 20
0.0
 30
0.0
 70
     1
  0
VERTEX
  5
C6
  8
0
 10
0.8730314960629922
 20
-0.4429133858267723
 30
0.0
  0
VERTEX
  5
C7
  8
0
 10
1.376968503937007
 20
-0.4429133858267723
 30
0.0
  0
VERTEX
  5
C9
  8
0
 10
1.376968503937007
 20
-0.474409448818898
 30
0.0
  0
VERTEX
  5
CA
  8
0
 10
1.4005905511811021
 20
-0.474409448818898
 30
0.0
  0
VERTEX
  5
CB
  8
0
 10
1.4005905511811021
 20
-1.025590551181103
 30
0.0
  0
VERTEX
  5
CC
  8
0
 10
1.376968503937007
 20
-1.025590551181103
 30
0.0
  0
VERTEX
  5
CD
  8
0
 10
1.376968503937007
 20
-1.057086614173228
 30
0.0
  0
VERTEX
  5
CE
  8
0
 10
0.8730314960629922
 20
-1.057086614173228
 30
0.0
  0
VERTEX
  5
CF
  8
0
 10
0.8730314960629922
 20
-1.025590551181103
 30
0.0
  0
VERTEX
  5
D0
  8
0
 10
0.8494094488188977
 20
-1.025590551181103
 30
0.0
  0
VERTEX
  5
D1
  8
0
 10
0.8494094488188977
 20
-0.474409448818898
 30
0.0
  0
VERTEX
  5
D2
  8
0
 10
0.8730314960629922
 20
-0.474409448818898
 30
0.0
  0
SEQEND
  5
C8
  8
0
  0
POLYLINE
  5
D3
  8
0
 66
     1
 10
0.0
 20
0.0
 30
0.0
 70
     1
  0
VERTEX
  5
D4
  8
0
 10
0.498031496062992
 20
0.3070866141732284
 30
0.0
  0
VERTEX
  5
D5
  8
0
 10
1.001968503937007
 20
0.3070866141732284
 30
0.0
  0
VERTEX
  5
D7
  8
0
 10
1.001968503937007
 20
0.2755905511811028
 30
0.0
  0
VERTEX
  5
D8
  8
0
 10
1.0255905511811021
 20
0.2755905511811028
 30
0.0
  0
VERTEX
  5
D9
  8
0
 10
1.0255905511811021
 20
-0.2755905511811024
 30
0.0
  0
VERTEX
  5
DA
  8
0
 10
1.001968503937007
 20
-0.2755905511811024
 30
0.0
  0
VERTEX
  5
DB
  8
0
 10
1.001968503937007
 20
-0.3070866141732281
 30
0.0
  0
VERTEX
  5
DC
  8
0
 10
0.498031496062992
 20
-0.3070866141732281
 30
0.0
  0
VERTEX
  5
DD
  8
0
 10
0.498031496062992
 20
-0.2755905511811024
 30
0.0
  0
VERTEX
  5
DE
  8
0
 10
0.4744094488188975
 20
-0.2755905511811024
 30
0.0
  0
VERTEX
  5
DF
  8
0
 10
0.4744094488188976
 20
0.2755905511811028
 30
0.0
  0
VERTEX
  5
E0
  8
0
 10
0.498031496062992
 20
0.2755905511811028
 30
0.0
  0
SEQEND
  5
D6
  8
0
  0
POLYLINE
  5
E1
  8
0
 66
     1
 10
0.0
 20
0.0
 30
0.0
 70
     1
  0
VERTEX
  5
E2
  8
0
 10
1.5880905511811021
 20
-1.775590551181103
 30
0.0
  0
VERTEX
  5
E3
  8
0
 10
1.564468503937007
 20
-1.775590551181103
 30
0.0
  0
VERTEX
  5
E5
  8
0
 10
1.564468503937007
 20
-1.807086614173228
 30
0.0
  0
VERTEX
  5
E6
  8
0
 10
1.060531496062993
 20
-1.8070866141732289
 30
0.0
  0
VERTEX
  5
E7
  8
0
 10
1.060531496062993
 20
-1.775590551181103
 30
0.0
  0
VERTEX
  5
E8
  8
0
 10
1.0369094488188979
 20
-1.775590551181103
 30
0.0
  0
VERTEX
  5
E9
  8
0
 10
1.036909448818897
 20
-1.2244094488188979
 30
0.0
  0
VERTEX
  5
EA
  8
0
 10
1.060531496062993
 20
-1.2244094488188979
 30
0.0
  0
VERTEX
  5
EB
  8
0
 10
1.060531496062993
 20
-1.192913385826772
 30
0.0
  0
VERTEX
  5
EC
  8
0
 10
1.564468503937007
 20
-1.192913385826772
 30
0.0
  0
VERTEX
  5
ED
  8
0
 10
1.564468503937007
 20
-1.2244094488188979
 30
0.0
  0
VERTEX
  5
EE
  8
0
 10
1.5880905511811021
 20
-1.2244094488188979
 30
0.0
  0
SEQEND
  5
E4
  8
0
  0
POLYLINE
  5
EF
  8
0
 66
     1
 10
0.0
 20
0.0
 30
0.0
 70
     1
  0
VERTEX
  5
F0
  8
0
 10
1.283218503937007
 20
-3.30708661417323
 30
0.0
  0
VERTEX
  5
F1
  8
0
 10
0.7792814960629921
 20
-3.30708661417323
 30
0.0
  0
VERTEX
  5
F3
  8
0
 10
0.7792814960629921
 20
-3.275590551181105
 30
0.0
  0
VERTEX
  5
F4
  8
0
 10
0.7556594488188989
 20
-3.275590551181105
 30
0.0
  0
VERTEX
  5
F5
  8
0
 10
0.7556594488188985
 20
-2.7244094488188999
 30
0.0
  0
VERTEX
  5
F6
  8
0
 10
0.7792814960629921
 20
-2.7244094488188999
 30
0.0
  0
VERTEX
  5
F7
  8
0
 10
0.7792814960629921
 20
-2.692913385826774
 30
0.0
  0
VERTEX
  5
F8
  8
0
 10
1.283218503937007
 20
-2.692913385826774
 30
0.0
  0
VERTEX
  5
F9
  8
0
 10
1.283218503937007
 20
-2.7244094488188999
 30
0.0
  0
VERTEX
  5
FA
  8
0
 10
1.3068405511811021
 20
-2.7244094488188999
 30
0.0
  0
VERTEX
  5
FB
  8
0
 10
1.306840551181103
 20
-3.275590551181105
 30
0.0
  0
VERTEX
  5
FC
  8
0
 10
1.2832185039370081
 20
-3.2755905511811041
 30
0.0
  0
SEQEND
  5
F2
  8
0
  0
POLYLINE
  5
FD
  8
0
 66
     1
 10
0.0
 20
0.0
 30
0.0
 70
     1
  0
VERTEX
  5
FE
  8
0
 10
0.6269685039370092
 20
-2.55708661417323
 30
0.0
  0
VERTEX
  5
FF
  8
0
 10
0.1230314960629934
 20
-2.55708661417323
 30
0.0
  0
VERTEX
  5
101
  8
0
 10
0.1230314960629934
 20
-2.5255905511811041
 30
0.0
  0
VERTEX
  5
102
  8
0
 10
0.0994094488188981
 20
-2.5255905511811041
 30
0.0
  0
VERTEX
  5
103
  8
0
 10
0.099409448818898
 20
-1.974409448818899
 30
0.0
  0
VERTEX
  5
104
  8
0
 10
0.1230314960629934
 20
-1.974409448818899
 30
0.0
  0
VERTEX
  5
105
  8
0
 10
0.1230314960629934
 20
-1.9429133858267731
 30
0.0
  0
VERTEX
  5
106
  8
0
 10
0.6269685039370092
 20
-1.9429133858267731
 30
0.0
  0
VERTEX
  5
107
  8
0
 10
0.6269685039370092
 20
-1.974409448818899
 30
0.0
  0
VERTEX
  5
108
  8
0
 10
0.650590551181103
 20
-1.974409448818899
 30
0.0
  0
VERTEX
  5
109
  8
0
 10
0.650590551181103
 20
-2.5255905511811041
 30
0.0
  0
VERTEX
  5
10A
  8
0
 10
0.6269685039370092
 20
-2.5255905511811041
 30
0.0
  0
SEQEND
  5
100
  8
0
  0
POLYLINE
  5
10B
  8
0
 66
     1
 10
0.0
 20
0.0
 30
0.0
 70
     1
  0
VERTEX
  5
10C
  8
0
 10
0.6269685039370079
 20
-0.474409448818898
 30
0.0
  0
VERTEX
  5
10D
  8
0
 10
0.6505905511811024
 20
-0.474409448818898
 30
0.0
  0
VERTEX
  5
10F
  8
0
 10
0.6505905511811024
 20
-1.025590551181103
 30
0.0
  0
VERTEX
  5
110
  8
0
 10
0.6269685039370079
 20
-1.025590551181103
 30
0.0
  0
VERTEX
  5
111
  8
0
 10
0.6269685039370079
 20
-1.057086614173228
 30
0.0
  0
VERTEX
  5
112
  8
0
 10
0.123031496062992
 20
-1.057086614173228
 30
0.0
  0
VERTEX
  5
113
  8
0
 10
0.123031496062992
 20
-1.025590551181103
 30
0.0
  0
VERTEX
  5
114
  8
0
 10
0.0994094488188977
 20
-1.025590551181103
 30
0.0
  0
VERTEX
  5
115
  8
0
 10
0.0994094488188977
 20
-0.474409448818898
 30
0.0
  0
VERTEX
  5
116
  8
0
 10
0.123031496062992
 20
-0.474409448818898
 30
0.0
  0
VERTEX
  5
117
  8
0
 10
0.123031496062992
 20
-0.4429133858267723
 30
0.0
  0
VERTEX
  5
118
  8
0
 10
0.6269685039370079
 20
-0.4429133858267723
 30
0.0
  0
SEQEND
  5
10E
  8
0
  0
POLYLINE
  5
119
  8
0
 66
     1
 10
0.0
 20
0.0
 30
0.0
 70
     1
  0
VERTEX
  5
11A
  8
0
 10
-0.275590551181102
 20
0.2755905511811028
 30
0.0
  0
VERTEX
  5
11B
  8
0
 10
-0.251968503937008
 20
0.2755905511811028
 30
0.0
  0
VERTEX
  5
11D
  8
0
 10
-0.251968503937008
 20
0.3070866141732284
 30
0.0
  0
VERTEX
  5
11E
  8
0
 10
0.2519685039370078
 20
0.3070866141732284
 30
0.0
  0
VERTEX
  5
11F
  8
0
 10
0.2519685039370078
 20
0.2755905511811028
 30
0.0
  0
VERTEX
  5
120
  8
0
 10
0.2755905511811025
 20
0.2755905511811028
 30
0.0
  0
VERTEX
  5
121
  8
0
 10
0.2755905511811023
 20
-0.2755905511811024
 30
0.0
  0
VERTEX
  5
122
  8
0
 10
0.2519685039370078
 20
-0.2755905511811024
 30
0.0
  0
VERTEX
  5
123
  8
0
 10
0.2519685039370078
 20
-0.3070866141732281
 30
0.0
  0
VERTEX
  5
124
  8
0
 10
-0.251968503937008
 20
-0.3070866141732281
 30
0.0
  0
VERTEX
  5
125
  8
0
 10
-0.251968503937008
 20
-0.2755905511811024
 30
0.0
  0
VERTEX
  5
126
  8
0
 10
-0.2755905511811025
 20
-0.2755905511811024
 30
0.0
  0
SEQEND
  5
11C
  8
0
  0
POLYLINE
  5
127
  8
0
 66
     1
 10
0.0
 20
0.0
 30
0.0
 70
     1
  0
VERTEX
  5
128
  8
0
 10
0.8144685039370077
 20
-1.807086614173228
 30
0.0
  0
VERTEX
  5
129
  8
0
 10
0.3105314960629935
 20
-1.8070866141732289
 30
0.0
  0
VERTEX
  5
12B
  8
0
 10
0.3105314960629935
 20
-1.775590551181103
 30
0.0
  0
VERTEX
  5
12C
  8
0
 10
0.2869094488188978
 20
-1.775590551181103
 30
0.0
  0
VERTEX
  5
12D
  8
0
 10
0.2869094488188976
 20
-1.224409448818897
 30
0.0
  0
VERTEX
  5
12E
  8
0
 10
0.3105314960629941
 20
-1.2244094488188979
 30
0.0
  0
VERTEX
  5
12F
  8
0
 10
0.3105314960629941
 20
-1.192913385826772
 30
0.0
  0
VERTEX
  5
130
  8
0
 10
0.8144685039370072
 20
-1.192913385826772
 30
0.0
  0
VERTEX
  5
131
  8
0
 10
0.8144685039370072
 20
-1.2244094488188979
 30
0.0
  0
VERTEX
  5
132
  8
0
 10
0.8380905511811022
 20
-1.2244094488188979
 30
0.0
  0
VERTEX
  5
133
  8
0
 10
0.8380905511811022
 20
-1.775590551181103
 30
0.0
  0
VERTEX
  5
134
  8
0
 10
0.8144685039370077
 20
-1.775590551181103
 30
0.0
  0
SEQEND
  5
12A
  8
0
  0
POLYLINE
  5
135
  8
0
 66
     1
 10
0.0
 20
0.0
 30
0.0
 70
     1
  0
VERTEX
  5
136
  8
0
 10
0.533218503937008
 20
-3.30708661417323
 30
0.0
  0
VERTEX
  5
137
  8
0
 10
0.0292814960629922
 20
-3.30708661417323
 30
0.0
  0
VERTEX
  5
139
  8
0
 10
0.0292814960629922
 20
-3.275590551181105
 30
0.0
  0
VERTEX
  5
13A
  8
0
 10
0.0056594488188989
 20
-3.2755905511811041
 30
0.0
  0
VERTEX
  5
13B
  8
0
 10
0.0056594488188985
 20
-2.7244094488188999
 30
0.0
  0
VERTEX
  5
13C
  8
0
 10
0.0292814960629922
 20
-2.7244094488188999
 30
0.0
  0
VERTEX
  5
13D
  8
0
 10
0.0292814960629922
 20
-2.692913385826774
 30
0.0
  0
VERTEX
  5
13E
  8
0
 10
0.533218503937008
 20
-2.692913385826774
 30
0.0
  0
VERTEX
  5
13F
  8
0
 10
0.533218503937008
 20
-2.7244094488188999
 30
0.0
  0
VERTEX
  5
140
  8
0
 10
0.5568405511811024
 20
-2.7244094488188999
 30
0.0
  0
VERTEX
  5
141
  8
0
 10
0.5568405511811037
 20
-3.2755905511811041
 30
0.0
  0
VERTEX
  5
142
  8
0
 10
0.533218503937008
 20
-3.275590551181105
 30
0.0
  0
SEQEND
  5
138
  8
0
  0
POLYLINE
  5
143
  8
0
 66
     1
 10
0.0
 20
0.0
 30
0.0
 70
     1
  0
VERTEX
  5
144
  8
0
 10
-0.216781496062992
 20
-3.30708661417323
 30
0.0
  0
VERTEX
  5
145
  8
0
 10
-0.7207185039370078
 20
-3.30708661417323
 30
0.0
  0
VERTEX
  5
147
  8
0
 10
-0.7207185039370078
 20
-3.275590551181105
 30
0.0
  0
VERTEX
  5
148
  8
0
 10
-0.7443405511811015
 20
-3.275590551181105
 30
0.0
  0
VERTEX
  5
149
  8
0
 10
-0.7443405511811015
 20
-2.7244094488188999
 30
0.0
  0
VERTEX
  5
14A
  8
0
 10
-0.7207185039370078
 20
-2.7244094488188999
 30
0.0
  0
VERTEX
  5
14B
  8
0
 10
-0.7207185039370078
 20
-2.692913385826774
 30
0.0
  0
VERTEX
  5
14C
  8
0
 10
-0.216781496062992
 20
-2.692913385826774
 30
0.0
  0
VERTEX
  5
14D
  8
0
 10
-0.216781496062992
 20
-2.7244094488188999
 30
0.0
  0
VERTEX
  5
14E
  8
0
 10
-0.1931594488188976
 20
-2.7244094488188999
 30
0.0
  0
VERTEX
  5
14F
  8
0
 10
-0.1931594488188968
 20
-3.275590551181105
 30
0.0
  0
VERTEX
  5
150
  8
0
 10
-0.216781496062992
 20
-3.275590551181105
 30
0.0
  0
SEQEND
  5
146
  8
0
  0
POLYLINE
  5
151
  8
0
 66
     1
 10
0.0
 20
0.0
 30
0.0
 70
     1
  0
VERTEX
  5
152
  8
0
 10
0.0644685039370075
 20
-1.807086614173228
 30
0.0
  0
VERTEX
  5
153
  8
0
 10
-0.4394685039370065
 20
-1.8070866141732289
 30
0.0
  0
VERTEX
  5
155
  8
0
 10
-0.4394685039370065
 20
-1.775590551181103
 30
0.0
  0
VERTEX
  5
156
  8
0
 10
-0.4630905511811022
 20
-1.775590551181103
 30
0.0
  0
VERTEX
  5
157
  8
0
 10
-0.4630905511811024
 20
-1.224409448818897
 30
0.0
  0
VERTEX
  5
158
  8
0
 10
-0.4394685039370059
 20
-1.2244094488188979
 30
0.0
  0
VERTEX
  5
159
  8
0
 10
-0.4394685039370059
 20
-1.192913385826772
 30
0.0
  0
VERTEX
  5
15A
  8
0
 10
0.0644685039370074
 20
-1.192913385826772
 30
0.0
  0
VERTEX
  5
15B
  8
0
 10
0.0644685039370074
 20
-1.2244094488188979
 30
0.0
  0
VERTEX
  5
15C
  8
0
 10
0.0880905511811025
 20
-1.2244094488188979
 30
0.0
  0
VERTEX
  5
15D
  8
0
 10
0.0880905511811036
 20
-1.775590551181103
 30
0.0
  0
VERTEX
  5
15E
  8
0
 10
0.0644685039370075
 20
-1.775590551181103
 30
0.0
  0
SEQEND
  5
154
  8
0
  0
POLYLINE
  5
15F
  8
0
 66
     1
 10
0.0
 20
0.0
 30
0.0
 70
     1
  0
VERTEX
  5
160
  8
0
 10
-0.4980314960629922
 20
-0.3070866141732281
 30
0.0
  0
VERTEX
  5
161
  8
0
 10
-1.001968503937007
 20
-0.3070866141732281
 30
0.0
  0
VERTEX
  5
163
  8
0
 10
-1.001968503937007
 20
-0.2755905511811024
 30
0.0
  0
VERTEX
  5
164
  8
0
 10
-1.0255905511811021
 20
-0.2755905511811024
 30
0.0
  0
VERTEX
  5
165
  8
0
 10
-1.0255905511811021
 20
0.2755905511811028
 30
0.0
  0
VERTEX
  5
166
  8
0
 10
-1.001968503937007
 20
0.2755905511811028
 30
0.0
  0
VERTEX
  5
167
  8
0
 10
-1.001968503937007
 20
0.3070866141732284
 30
0.0
  0
VERTEX
  5
168
  8
0
 10
-0.498031496062992
 20
0.3070866141732284
 30
0.0
  0
VERTEX
  5
169
  8
0
 10
-0.4980314960629922
 20
0.2755905511811028
 30
0.0
  0
VERTEX
  5
16A
  8
0
 10
-0.4744094488188978
 20
0.2755905511811028
 30
0.0
  0
VERTEX
  5
16B
  8
0
 10
-0.4744094488188978
 20
-0.2755905511811024
 30
0.0
  0
VERTEX
  5
16C
  8
0
 10
-0.4980314960629922
 20
-0.2755905511811024
 30
0.0
  0
SEQEND
  5
162
  8
0
  0
POLYLINE
  5
16D
  8
0
 66
     1
 10
0.0
 20
0.0
 30
0.0
 70
     1
  0
VERTEX
  5
16E
  8
0
 10
-0.6269685039370079
 20
-1.025590551181103
 30
0.0
  0
VERTEX
  5
16F
  8
0
 10
-0.6505905511811023
 20
-1.025590551181103
 30
0.0
  0
VERTEX
  5
171
  8
0
 10
-0.6505905511811023
 20
-0.474409448818898
 30
0.0
  0
VERTEX
  5
172
  8
0
 10
-0.6269685039370079
 20
-0.474409448818898
 30
0.0
  0
VERTEX
  5
173
  8
0
 10
-0.6269685039370079
 20
-0.4429133858267723
 30
0.0
  0
VERTEX
  5
174
  8
0
 10
-0.1230314960629921
 20
-0.4429133858267723
 30
0.0
  0
VERTEX
  5
175
  8
0
 10
-0.1230314960629921
 20
-0.474409448818898
 30
0.0
  0
VERTEX
  5
176
  8
0
 10
-0.0994094488188976
 20
-0.474409448818898
 30
0.0
  0
VERTEX
  5
177
  8
0
 10
-0.0994094488188976
 20
-1.025590551181103
 30
0.0
  0
VERTEX
  5
178
  8
0
 10
-0.1230314960629921
 20
-1.025590551181103
 30
0.0
  0
VERTEX
  5
179
  8
0
 10
-0.1230314960629921
 20
-1.057086614173228
 30
0.0
  0
VERTEX
  5
17A
  8
0
 10
-0.6269685039370079
 20
-1.057086614173228
 30
0.0
  0
SEQEND
  5
170
  8
0
  0
POLYLINE
  5
17B
  8
0
 66
     1
 10
0.0
 20
0.0
 30
0.0
 70
     1
  0
VERTEX
  5
17C
  8
0
 10
-0.6269685039370067
 20
-2.55708661417323
 30
0.0
  0
VERTEX
  5
17D
  8
0
 10
-0.6269685039370067
 20
-2.5255905511811041
 30
0.0
  0
VERTEX
  5
17F
  8
0
 10
-0.6505905511811023
 20
-2.5255905511811041
 30
0.0
  0
VERTEX
  5
180
  8
0
 10
-0.6505905511811023
 20
-1.974409448818899
 30
0.0
  0
VERTEX
  5
181
  8
0
 10
-0.6269685039370067
 20
-1.974409448818899
 30
0.0
  0
VERTEX
  5
182
  8
0
 10
-0.6269685039370067
 20
-1.9429133858267731
 30
0.0
  0
VERTEX
  5
183
  8
0
 10
-0.1230314960629907
 20
-1.9429133858267731
 30
0.0
  0
VERTEX
  5
184
  8
0
 10
-0.1230314960629907
 20
-1.974409448818899
 30
0.0
  0
VERTEX
  5
185
  8
0
 10
-0.0994094488188962
 20
-1.974409448818899
 30
0.0
  0
VERTEX
  5
186
  8
0
 10
-0.0994094488188968
 20
-2.5255905511811041
 30
0.0
  0
VERTEX
  5
187
  8
0
 10
-0.1230314960629907
 20
-2.5255905511811041
 30
0.0
  0
VERTEX
  5
188
  8
0
 10
-0.1230314960629907
 20
-2.55708661417323
 30
0.0
  0
SEQEND
  5
17E
  8
0
  0
POLYLINE
  5
189
  8
0
 66
     1
 10
0.0
 20
0.0
 30
0.0
 70
     1
  0
VERTEX
  5
18A
  8
0
 10
-1.63313068007783
 20
-1.2181023678235201
 30
0.0
  0
VERTEX
  5
18B
  8
0
 10
-1.1572036948933491
 20
-1.052433986174435
 30
0.0
  0
VERTEX
  5
18D
  8
0
 10
-1.146849421040282
 20
-1.0821794227484649
 30
0.0
  0
VERTEX
  5
18E
  8
0
 10
-1.124540343609759
 20
-1.0744137173586641
 30
0.0
  0
VERTEX
  5
18F
  8
0
 10
-0.9433405511810722
 20
-1.5949588574041911
 30
0.0
  0
VERTEX
  5
190
  8
0
 10
-0.9656496286115957
 20
-1.602724562793991
 30
0.0
  0
VERTEX
  5
191
  8
0
 10
-0.9552953547585278
 20
-1.632469999368021
 30
0.0
  0
VERTEX
  5
192
  8
0
 10
-1.431222339943008
 20
-1.7981383810171061
 30
0.0
  0
VERTEX
  5
193
  8
0
 10
-1.4415766137960759
 20
-1.7683929444430759
 30
0.0
  0
VERTEX
  5
194
  8
0
 10
-1.463885691226599
 20
-1.776158649832877
 30
0.0
  0
VERTEX
  5
195
  8
0
 10
-1.6450854836552891
 20
-1.255613509787352
 30
0.0
  0
VERTEX
  5
196
  8
0
 10
-1.6227764062247629
 20
-1.2478478043975501
 30
0.0
  0
SEQEND
  5
18C
  8
0
  0
POLYLINE
  5
197
  8
0
 66
     1
 10
0.0
 20
0.0
 30
0.0
 70
     1
  0
VERTEX
  5
198
  8
0
 10
-0.9028078118010151
 20
-1.9429133858267731
 30
0.0
  0
VERTEX
  5
199
  8
0
 10
-0.9028078118010151
 20
-1.974409448818899
 30
0.0
  0
VERTEX
  5
19B
  8
0
 10
-0.8791857645569201
 20
-1.974409448818899
 30
0.0
  0
VERTEX
  5
19C
  8
0
 10
-0.8791857645569191
 20
-2.525590551181105
 30
0.0
  0
VERTEX
  5
19D
  8
0
 10
-0.9028078118010139
 20
-2.5255905511811041
 30
0.0
  0
VERTEX
  5
19E
  8
0
 10
-0.9028078118010137
 20
-2.55708661417323
 30
0.0
  0
VERTEX
  5
19F
  8
0
 10
-1.406744819675029
 20
-2.55708661417323
 30
0.0
  0
VERTEX
  5
1A0
  8
0
 10
-1.406744819675029
 20
-2.525590551181105
 30
0.0
  0
VERTEX
  5
1A1
  8
0
 10
-1.430366866919125
 20
-2.525590551181105
 30
0.0
  0
VERTEX
  5
1A2
  8
0
 10
-1.4303668669191261
 20
-1.9744094488188999
 30
0.0
  0
VERTEX
  5
1A3
  8
0
 10
-1.406744819675029
 20
-1.9744094488188999
 30
0.0
  0
VERTEX
  5
1A4
  8
0
 10
-1.406744819675029
 20
-1.9429133858267731
 30
0.0
  0
SEQEND
  5
19A
  8
0
  0
POLYLINE
  5
1A5
  8
0
 66
     1
 10
0.0
 20
0.0
 30
0.0
 70
     1
  0
VERTEX
  5
1A6
  8
0
 10
-1.431222339943093
 20
-2.7018616189828841
 30
0.0
  0
VERTEX
  5
1A7
  8
0
 10
-0.9552953547585668
 20
-2.8675300006318398
 30
0.0
  0
VERTEX
  5
1A9
  8
0
 10
-0.9656496286116261
 20
-2.897275437205872
 30
0.0
  0
VERTEX
  5
1AA
  8
0
 10
-0.9433405511811011
 20
-2.905041142595667
 30
0.0
  0
VERTEX
  5
1AB
  8
0
 10
-1.1245403436096471
 20
-3.4255862826412429
 30
0.0
  0
VERTEX
  5
1AC
  8
0
 10
-1.1468494210401721
 20
-3.4178205772514478
 30
0.0
  0
VERTEX
  5
1AD
  8
0
 10
-1.1572036948932309
 20
-3.44756601382548
 30
0.0
  0
VERTEX
  5
1AE
  8
0
 10
-1.633130680077757
 20
-3.2818976321765252
 30
0.0
  0
VERTEX
  5
1AF
  8
0
 10
-1.622776406224697
 20
-3.252152195602493
 30
0.0
  0
VERTEX
  5
1B0
  8
0
 10
-1.6450854836552229
 20
-3.2443864902126971
 30
0.0
  0
VERTEX
  5
1B1
  8
0
 10
-1.4638856912266771
 20
-2.7238413501671221
 30
0.0
  0
VERTEX
  5
1B2
  8
0
 10
-1.4415766137961521
 20
-2.7316070555569172
 30
0.0
  0
SEQEND
  5
1A8
  8
0
  0
POLYLINE
  5
1B3
  8
0
 66
     1
 10
0.0
 20
0.0
 30
0.0
 70
     1
  0
VERTEX
  5
1B4
  8
0
 10
-2.1942986817965502
 20
-3.990280413366373
 30
0.0
  0
VERTEX
  5
1B5
  8
0
 10
-1.9241156473533949
 20
-4.4156668680215541
 30
0.0
  0
VERTEX
  5
1B7
  8
0
 10
-1.950702300769344
 20
-4.4325533076742518
 30
0.0
  0
VERTEX
  5
1B8
  8
0
 10
-1.9380374710298209
 20
-4.4524932977362139
 30
0.0
  0
VERTEX
  5
1B9
  8
0
 10
-2.4033039058089258
 20
-4.7480059916584141
 30
0.0
  0
VERTEX
  5
1BA
  8
0
 10
-2.4159687355484492
 20
-4.7280660015964528
 30
0.0
  0
VERTEX
  5
1BB
  8
0
 10
-2.4425553889643972
 20
-4.7449524412491497
 30
0.0
  0
VERTEX
  5
1BC
  8
0
 10
-2.712738423407552
 20
-4.3195659865939682
 30
0.0
  0
VERTEX
  5
1BD
  8
0
 10
-2.6861517699916031
 20
-4.3026795469412713
 30
0.0
  0
VERTEX
  5
1BE
  8
0
 10
-2.698816599731126
 20
-4.2827395568793092
 30
0.0
  0
VERTEX
  5
1BF
  8
0
 10
-2.2335501649520211
 20
-3.987226862957109
 30
0.0
  0
VERTEX
  5
1C0
  8
0
 10
-2.2208853352124982
 20
-4.0071668530190712
 30
0.0
  0
SEQEND
  5
1B6
  8
0
  0
POLYLINE
  5
1C1
  8
0
 66
     1
 10
0.0
 20
0.0
 30
0.0
 70
     1
  0
VERTEX
  5
1C2
  8
0
 10
-1.7038422027863951
 20
-3.4105787557818732
 30
0.0
  0
VERTEX
  5
1C3
  8
0
 10
-1.3088315577289209
 20
-3.7234990302868902
 30
0.0
  0
VERTEX
  5
1C5
  8
0
 10
-1.328389074885485
 20
-3.748187195602982
 30
0.0
  0
VERTEX
  5
1C6
  8
0
 10
-1.309872950898417
 20
-3.7628553334704038
 30
0.0
  0
VERTEX
  5
1C7
  8
0
 10
-1.6521295011382791
 20
-4.1948982265020138
 30
0.0
  0
VERTEX
  5
1C8
  8
0
 10
-1.670645625125347
 20
-4.180230088634592
 30
0.0
  0
VERTEX
  5
1C9
  8
0
 10
-1.690203142281911
 20
-4.2049182539506837
 30
0.0
  0
VERTEX
  5
1CA
  8
0
 10
-2.0852137873393839
 20
-3.8919979794456672
 30
0.0
  0
VERTEX
  5
1CB
  8
0
 10
-2.0656562701828189
 20
-3.8673098141295741
 30
0.0
  0
VERTEX
  5
1CC
  8
0
 10
-2.084172394169888
 20
-3.8526416762621518
 30
0.0
  0
VERTEX
  5
1CD
  8
0
 10
-1.741915843930026
 20
-3.4205987832305418
 30
0.0
  0
VERTEX
  5
1CE
  8
0
 10
-1.723399719942958
 20
-3.4352669210979641
 30
0.0
  0
SEQEND
  5
1C4
  8
0
  0
POLYLINE
  5
1CF
  8
0
 66
     1
 10
0.0
 20
0.0
 30
0.0
 70
     1
  0
VERTEX
  5
1D0
  8
0
 10
1.3380905511811021
 20
-3.525590551181105
 30
0.0
 42
0.4142135623730951
  0
VERTEX
  5
1D1
  8
0
 10
1.8380905511811021
 20
-3.025590551181105
 30
0.0
  0
VERTEX
  5
1D3
  8
0
 10
1.8380905511811021
 20
-0.9922598474656627
 30
0.0
 42
0.0362930520754729
  0
VERTEX
  5
1D4
  8
0
 10
1.835463106147434
 20
-0.9561098951914318
 30
0.0
 42
0.0986814887629438
  0
VERTEX
  5
1D5
  8
0
 10
1.351598354906665
 20
0.4038157746269515
 30
0.0
 42
0.2639441727307612
  0
VERTEX
  5
1D6
  8
0
 10
1.136986397941862
 20
0.5255905511811028
 30
0.0
  0
VERTEX
  5
1D7
  8
0
 10
-1.0380271926493829
 20
0.5255905511811027
 30
0.0
 42
0.3853875123547278
  0
VERTEX
  5
1D8
  8
0
 10
-1.2867928868036691
 20
0.3004024316406044
 30
0.0
 42
-0.1480864953977362
  0
VERTEX
  5
1D9
  8
0
 10
-1.7909936744515389
 20
-0.9142747820880639
 30
0.0
 42
0.2354467259481523
  0
VERTEX
  5
1DA
  8
0
 10
-1.8905404624576709
 20
-1.349188113462706
 30
0.0
 42
-0.29731682322217
  0
VERTEX
  5
1DB
  8
0
 10
-2.8563618757346432
 20
-4.0749400641203692
 30
0.0
 42
0.3891230187016312
  0
VERTEX
  5
1DC
  8
0
 10
-2.9156433225597218
 20
-4.4076515490016188
 30
0.0
  0
VERTEX
  5
1DD
  8
0
 10
-2.5828493897473321
 20
-4.9316149854978617
 30
0.0
 42
0.3517613056442275
  0
VERTEX
  5
1DE
  8
0
 10
-2.2865541098257611
 20
-5.032589717991609
 30
0.0
 42
0.2056950274990207
  0
VERTEX
  5
1DF
  8
0
 10
-1.000791386712016
 20
-3.8256919928531139
 30
0.0
 42
-0.2982768873990761
  0
VERTEX
  5
1E0
  8
0
 10
-0.5424895578062279
 20
-3.525590551181105
 30
0.0
  0
SEQEND
  5
1D2
  8
0
  0
CIRCLE
  5
1E1
  8
0
 10
-1.888098650646638
 20
-3.2255591597597291
 30
0.0
 40
0.082
  0
CIRCLE
  5
1E2
  8
0
 10
-1.339154821709889
 20
-0.6220370544552266
 30
0.0
 40
0.082
  0
CIRCLE
  5
1E3
  8
0
 10
1.346086316264349
 20
-0.0551577122228189
 30
0.0
 40
0.082
  0
CIRCLE
  5
1E4
  8
0
 10
1.61586832895888
 20
-3.0566470508686021
 30
0.0
 40
0.082
  0
CIRCLE
  5
1E5
  8
0
 10
-0.9102445007206096
 20
-3.411918788207787
 30
0.0
 40
0.082
  0
ENDSEC
  0
EOF
