0
SECTION
2
HEADER
9
$INSUNITS
70
1
9
$ACADVER
1
AC1014
9
$HANDSEED
5
FFFF
0
ENDSEC
0
SECTION
2
TABLES
0
TABLE
2
VPORT
5
8
100
AcDbSymbolTable
0
ENDTAB
0
TABLE
2
LTYPE
5
5
100
AcDbSymbolTable
0
LTYPE
5
14
100
AcDbSymbolTableRecord
100
AcDbLinetypeTableRecord
2
BYBLOCK
70
0
0
LTYPE
5
15
100
AcDbSymbolTableRecord
100
AcDbLinetypeTableRecord
2
BYLAYER
70
0
0
ENDTAB
0
TABLE
2
LAYER
5
2
100
AcDbSymbolTable
70
2
0
LAYER
5
50
100
AcDbSymbolTableRecord
100
AcDbLayerTableRecord
2
0
70
0
6
CONTINUOUS
0
ENDTAB
0
TABLE
2
STYLE
5
3
100
AcDbSymbolTable
70
1
0
STYLE
5
11
100
AcDbSymbolTableRecord
100
AcDbTextStyleTableRecord
2
STANDARD
70
0
0
ENDTAB
0
TABLE
2
VIEW
5
6
100
AcDbSymbolTable
70
0
0
ENDTAB
0
TABLE
2
UCS
5
7
100
AcDbSymbolTable
70
0
0
ENDTAB
0
TABLE
2
APPID
5
9
100
AcDbSymbolTable
70
2
0
APPID
5
12
100
AcDbSymbolTableRecord
100
AcDbRegAppTableRecord
2
ACAD
70
0
0
ENDTAB
0
TABLE
2
DIMSTYLE
5
A
100
AcDbSymbolTable
70
1
0
ENDTAB
0
TABLE
2
BLOCK_RECORD
5
1
100
AcDbSymbolTable
70
1
0
BLOCK_RECORD
5
1F
100
AcDbSymbolTableRecord
100
AcDbBlockTableRecord
2
*MODEL_SPACE
0
BLOCK_RECORD
5
1B
100
AcDbSymbolTableRecord
100
AcDbBlockTableRecord
2
*PAPER_SPACE
0
ENDTAB
0
ENDSEC
0
SECTION
2
BLOCKS
0
BLOCK
5
20
100
AcDbEntity
100
AcDbBlockBegin
2
*MODEL_SPACE
0
ENDBLK
5
21
100
AcDbEntity
100
AcDbBlockEnd
0
BLOCK
5
1C
100
AcDbEntity
100
AcDbBlockBegin
2
*PAPER_SPACE
0
ENDBLK
5
1D
100
AcDbEntity
100
AcDbBlockEnd
0
ENDSEC
0
SECTION
2
ENTITIES
0
LWPOLYLINE
5
100
100
AcDbEntity
8
0
100
AcDbPolyline
90
46
70
1
43
0.0
10
-0.56848231477346012
20
-4.6866759946269783
42
-0.025010790777215994
10
-0.3749983064337451
20
-4.6394520613452883
10
-0.37499830643388554
20
-4.876691293443419
10
-0.1874983064338836
20
-4.876691293443419
10
-0.1874983064338836
20
-4.9766912934434187
10
-0.37499999999997763
20
-4.9766912934412542
42
0.072477087947428631
10
-0.94575890771339044
20
-5.0598620706710662
10
-3.8560787386946207
20
-5.9264447312938051
42
-0.41421356237309526
10
-4.4779757713155286
20
-5.5899271525296168
10
-5.2103635822992755
20
-3.1302855428726657
42
-0.40518699987947004
10
-4.8885909463003081
20
-2.5130283025402806
42
0.14922000653428999
10
-1.2741410318624742
20
0.048706068919476708
42
-0.45098008631326986
10
-0.15227049448358065
20
0.12228233575160934
42
0.41213519330340187
10
0.15227049448358068
20
0.12228233575160889
42
-0.45098008631326769
10
1.2741410318624704
20
0.048706068919481774
42
0.14922000653428924
10
4.8885909463003054
20
-2.5130283025402806
42
-0.40518699987947077
10
5.2103635822992747
20
-3.1302855428726657
10
4.4779757713155259
20
-5.5899271525296177
42
-0.41421356237309803
10
3.8560787386946158
20
-5.9264447312938016
10
0.94575890771350524
20
-5.0598620706710635
42
0.072476662331878092
10
0.37500338713221043
20
-4.9766912934412542
10
0.18750169356611637
20
-4.976691293441962
10
0.18750169356611637
20
-4.8766912934419615
10
0.37500169356611451
20
-4.8766912934419615
10
0.37500169356600899
20
-4.6394527105836625
42
-0.025010357680887961
10
0.56848231477345879
20
-4.6866759946269774
10
3.9274236021588012
20
-5.6868410784475305
42
0.41421356237309509
10
4.238372118469254
20
-5.5185822890654368
10
4.9707599294529965
20
-3.0589406794084835
42
0.40518699987946594
10
4.8098736114535194
20
-2.7503120592422916
42
-0.14922000653428924
10
1.0763321044863312
20
-0.10417175239643733
42
0.52234496520399398
10
0.25660135954911756
20
-0.1451099930717758
42
0.20513361365543586
10
0.23262255933917164
20
-0.18808547608808376
42
0.20524190421244001
10
0.21103095210557085
20
-0.581384678130619
42
-0.10205997059188811
10
0.59009274761690944
20
-3.1484826582251375
42
-0.39766952422077234
10
0.37499830643374604
20
-3.3516912934437371
10
-0.37499830643374527
20
-3.3516912934437104
42
-0.39766952422077129
10
-0.59009274761691033
20
-3.1484826582251393
42
-0.102059970591888
10
-0.2110309521055716
20
-0.58138467813061623
42
0.20524190421243713
10
-0.23262255933916928
20
-0.18808547608808812
42
0.20513361365543797
10
-0.256601359549115
20
-0.14510999307177949
42
0.52234496520399676
10
-1.0763321044863277
20
-0.10417175239643996
42
-0.14922000653428993
10
-4.809873611453515
20
-2.7503120592422947
42
0.40518699987947088
10
-4.9707599294529965
20
-3.0589406794084835
10
-4.238372118469254
20
-5.5185822890654368
42
0.41421356237309509
10
-3.9274236021588012
20
-5.6868410784475305
0
CIRCLE
5
101
100
AcDbEntity
8
0
100
AcDbCircle
10
0.29526445970027909
20
-2.262701434033489
30
0
40
0.054499999999999993
0
CIRCLE
5
102
100
AcDbEntity
8
0
100
AcDbCircle
10
-0.29526445970028709
20
-2.2627014340334886
30
0
40
0.054499999999999993
0
CIRCLE
5
103
100
AcDbEntity
8
0
100
AcDbCircle
10
-3.234841415367866e-15
20
-1.0118767290888415
30
0
40
0.054499999999999993
0
ENDSEC
0
SECTION
2
OBJECTS
0
DICTIONARY
5
C
100
AcDbDictionary
3
ACAD_GROUP
350
D
3
ACAD_MLINESTYLE
350
17
0
DICTIONARY
5
D
100
AcDbDictionary
0
DICTIONARY
5
1A
330
C
100
AcDbDictionary
0
DICTIONARY
5
17
100
AcDbDictionary
0
ENDSEC
0
EOF
