0
SECTION
2
HEADER
9
$INSUNITS
70
1
9
$ACADVER
1
AC1014
9
$HANDSEED
5
FFFF
0
ENDSEC
0
SECTION
2
TABLES
0
TABLE
2
VPORT
5
8
100
AcDbSymbolTable
0
ENDTAB
0
TABLE
2
LTYPE
5
5
100
AcDbSymbolTable
0
LTYPE
5
14
100
AcDbSymbolTableRecord
100
AcDbLinetypeTableRecord
2
BYBLOCK
70
0
0
LTYPE
5
15
100
AcDbSymbolTableRecord
100
AcDbLinetypeTableRecord
2
BYLAYER
70
0
0
ENDTAB
0
TABLE
2
LAYER
5
2
100
AcDbSymbolTable
70
2
0
LAYER
5
50
100
AcDbSymbolTableRecord
100
AcDbLayerTableRecord
2
0
70
0
6
CONTINUOUS
0
ENDTAB
0
TABLE
2
STYLE
5
3
100
AcDbSymbolTable
70
1
0
STYLE
5
11
100
AcDbSymbolTableRecord
100
AcDbTextStyleTableRecord
2
STANDARD
70
0
0
ENDTAB
0
TABLE
2
VIEW
5
6
100
AcDbSymbolTable
70
0
0
ENDTAB
0
TABLE
2
UCS
5
7
100
AcDbSymbolTable
70
0
0
ENDTAB
0
TABLE
2
APPID
5
9
100
AcDbSymbolTable
70
2
0
APPID
5
12
100
AcDbSymbolTableRecord
100
AcDbRegAppTableRecord
2
ACAD
70
0
0
ENDTAB
0
TABLE
2
DIMSTYLE
5
A
100
AcDbSymbolTable
70
1
0
ENDTAB
0
TABLE
2
BLOCK_RECORD
5
1
100
AcDbSymbolTable
70
1
0
BLOCK_RECORD
5
1F
100
AcDbSymbolTableRecord
100
AcDbBlockTableRecord
2
*MODEL_SPACE
0
BLOCK_RECORD
5
1B
100
AcDbSymbolTableRecord
100
AcDbBlockTableRecord
2
*PAPER_SPACE
0
ENDTAB
0
ENDSEC
0
SECTION
2
BLOCKS
0
BLOCK
5
20
100
AcDbEntity
100
AcDbBlockBegin
2
*MODEL_SPACE
0
ENDBLK
5
21
100
AcDbEntity
100
AcDbBlockEnd
0
BLOCK
5
1C
100
AcDbEntity
100
AcDbBlockBegin
2
*PAPER_SPACE
0
ENDBLK
5
1D
100
AcDbEntity
100
AcDbBlockEnd
0
ENDSEC
0
SECTION
2
ENTITIES
0
CIRCLE
5
100
100
AcDbEntity
8
0
100
AcDbCircle
10
-0.29526445970028709
20
-2.2627014340334886
30
0
40
0.073000000000000009
0
CIRCLE
5
101
100
AcDbEntity
8
0
100
AcDbCircle
10
0.29526445970027909
20
-2.262701434033489
30
0
40
0.073000000000000009
0
CIRCLE
5
102
100
AcDbEntity
8
0
100
AcDbCircle
10
-3.2348414153678656e-15
20
-1.0118767290888415
30
0
40
0.073000000000000009
0
LWPOLYLINE
5
103
100
AcDbEntity
8
0
100
AcDbPolyline
90
59
70
1
43
0.0
10
4.0775355364170007
20
-2.9926405649012069
42
-0.41421356237310225
10
3.9997984073393869
20
-3.0347052622467303
10
3.4007892752237066
20
-2.8563431035862807
42
0.41421356237309725
10
3.3230521461460931
20
-2.8984078009318046
10
3.3052159302800477
20
-2.958308714143373
42
-0.41421356237309237
10
3.2274788012024347
20
-3.0003734114888956
10
2.6284696690867482
20
-2.822011252828446
42
-0.4142135623731002
10
2.5864049717412243
20
-2.744274123750833
10
2.8267733267229915
20
-1.9370241959239043
42
0.41421356237309342
10
2.7847086293774681
20
-1.8592870668462911
10
2.149591205014513
20
-1.6701732307814945
42
-0.083940768655646134
10
2.1308902674117949
20
-1.6609801711667809
10
1.5626783063003353
20
-1.2515594177077127
42
-0.083940768655653739
10
1.5480390132352428
20
-1.2367294308279217
10
1.1460059638800231
20
-0.66326660436101104
42
-0.083940768655655307
10
1.1370556891096095
20
-0.64444826240868502
10
0.95617695373596179
20
-0.0069366399184626485
42
0.41421356237312079
10
0.8789907076669492
20
0.036130556621067705
10
0.27772349462426987
20
-0.13446469102636222
42
0.41421356237310114
10
0.23465629808474525
20
-0.21165093709537447
10
0.40525154573217514
20
-0.81291815013800217
42
0.41421356237306717
10
0.48243779180118151
20
-0.85598534667752713
10
0.70707771579596645
20
-0.7922491198650744
42
-0.84511927019819699
10
0.76001510727776878
20
-0.9035522877031994
10
0.56881437638285637
20
-1.0375958722790579
42
0.41421356237309526
10
0.55351579656606409
20
-1.1246501855299773
10
0.9122944637367002
20
-1.6364146508685358
42
0.41421356237309548
10
0.9993487769876197
20
-1.6517132306853282
10
1.1905495078824289
20
-1.5176696461095418
42
-0.84511927019820965
10
1.2771352281963473
20
-1.6053832461121609
10
1.1406284771185466
20
-1.7948332631900705
42
0.41421356237309509
10
1.1547991772466382
20
-1.8820782702556884
10
1.3460981657100843
20
-2.0199172834286236
42
-0.84511927019820843
10
1.2917247963752763
20
-2.1305260502370467
10
1.2711107234063135
20
-2.1243879625913009
42
0.41421356237309476
10
1.1933735943287003
20
-2.1664526599368243
10
0.58694225488317231
20
-4.2030837091301478
42
0.41421356237309248
10
0.62900695222869552
20
-4.2808208382077604
10
1.2318202911220086
20
-4.4603157450960271
42
-0.34199871311960939
10
1.2764419390452302
20
-4.5225112717568345
42
0.34199871311961572
10
1.3210635869684513
20
-4.5847067984176428
10
1.9200727190841349
20
-4.7630689570780937
42
-0.41421356237309392
10
1.9621374164296577
20
-4.8408060861557072
10
1.9443012005636071
20
-4.9007069993672951
42
0.41421356237309509
10
1.9863658979091305
20
-4.9784441284449077
10
2.5853750300248146
20
-5.1568062871053568
42
0.41421356237309509
10
2.6631121591024276
20
-5.1147415897598334
10
2.6809483749684713
20
-5.0548406765482667
42
-0.41421356237309048
10
2.7586855040460856
20
-5.0127759792027424
10
3.3576946361617681
20
-5.1911381378631916
42
0.41421356237309509
10
3.4354317652393811
20
-5.1490734405176681
10
3.5067766287035602
20
-4.9094697876714006
42
-0.41421356237309814
10
3.5845137577811741
20
-4.8674050903258763
10
4.1835228898968531
20
-5.0457672489863254
42
0.41421356237309281
10
4.2612600189744665
20
-5.0037025516408029
10
4.8676913584199974
20
-2.9670715024474781
42
0.41421356237309659
10
4.825626661074474
20
-2.8893343733698647
10
4.2266175289587924
20
-2.7109722147094146
42
0.41421356237309342
10
4.148880399881179
20
-2.7530369120549381
0
LWPOLYLINE
5
104
100
AcDbEntity
8
0
100
AcDbPolyline
90
59
70
1
43
0.0
10
-2.5864049717411981
20
-2.7442741237508645
42
-0.41421356237309342
10
-2.6284696690867202
20
-2.8220112528284784
10
-3.2274788012023996
20
-3.0003734114889333
42
-0.41421356237308216
10
-3.305215930280013
20
-2.9583087141434117
10
-3.3230521461460589
20
-2.8984078009318432
42
0.41421356237309392
10
-3.4007892752236728
20
-2.8563431035863212
10
-3.9997984073393513
20
-3.0347052622467778
42
-0.41421356237308737
10
-4.0775355364169643
20
-2.9926405649012553
10
-4.1488803998811461
20
-2.7530369120549869
42
0.41421356237309392
10
-4.2266175289587604
20
-2.7109722147094648
10
-4.8256266610744385
20
-2.889334373369921
42
0.41421356237309659
10
-4.8676913584199619
20
-2.9670715024475354
10
-4.261260018974407
20
-5.0037025516408535
42
0.41421356237309193
10
-4.1835228898967936
20
-5.0457672489863752
10
-3.5845137577811168
20
-4.8674050903259198
42
-0.41421356237307744
10
-3.506776628703502
20
-4.9094697876714415
10
-3.4354317652393203
20
-5.149073440517709
42
0.41421356237309193
10
-3.3576946361617068
20
-5.1911381378632315
10
-2.7586855040460261
20
-5.0127759792027753
42
-0.41421356237309975
10
-2.6809483749684127
20
-5.0548406765482978
10
-2.6631121591023681
20
-5.1147415897598645
42
0.41421356237309592
10
-2.5853750300247542
20
-5.156806287105387
10
-1.9863658979090715
20
-4.9784441284449308
42
0.41421356237309392
10
-1.9443012005635494
20
-4.9007069993673174
10
-1.9621374164296015
20
-4.8408060861557294
42
-0.41421356237308665
10
-1.9200727190840785
20
-4.7630689570781151
10
-1.3172593801907684
20
-4.583574050189843
42
0.3419987131196156
10
-1.2726377322675466
20
-4.5213785235290347
42
-0.34199871311960645
10
-1.2280160843443269
20
-4.4591829968682273
10
-0.62900695222864589
20
-4.2808208382077693
42
0.41421356237309431
10
-0.58694225488312279
20
-4.2030837091301558
10
-1.1933735943286752
20
-2.1664526599368377
42
0.41421356237309342
10
-1.2711107234062888
20
-2.124387962591316
10
-1.2917247963752518
20
-2.1305260502370622
42
-0.84511927019820865
10
-1.3460981657100615
20
-2.0199172834286401
10
-1.1547991772466153
20
-1.8820782702557017
42
0.4142135623730937
10
-1.1406284771185251
20
-1.7948332631900841
10
-1.2771352281963277
20
-1.6053832461121766
42
-0.84511927019820909
10
-1.1905495078824107
20
-1.517669646109556
10
-0.99934877698759994
20
-1.6517132306853399
42
0.41421356237309453
10
-0.91229446373668088
20
-1.6364146508685464
10
-0.55351579656605088
20
-1.1246501855299842
42
0.41421356237309492
10
-0.56881437638284404
20
-1.0375958722790646
10
-0.76001510727775834
20
-0.90355228770320806
42
-0.84511927019819388
10
-0.70707771579595735
20
-0.7922491198650824
10
-0.4824377918011718
20
-0.8559853466775329
42
0.41421356237306828
10
-0.40525154573216571
20
-0.81291815013800717
10
-0.23465629808474289
20
-0.21165093709537744
42
0.4142135623731022
10
-0.27772349462426843
20
-0.13446469102636549
10
-0.87899070766694964
20
0.036130556621057235
42
0.41421356237312185
10
-0.95617695373596179
20
-0.0069366399184740213
10
-1.1370556891096015
20
-0.64444826240869746
42
-0.08394076865567833
10
-1.1460059638800149
20
-0.6632666043610238
10
-1.5480390132352295
20
-1.2367294308279411
42
-0.083940768655653961
10
-1.562678306300322
20
-1.251559417707732
10
-2.1308902674117745
20
-1.6609801711668057
42
-0.083940768655621306
10
-2.149591205014493
20
-1.67017323078152
10
-2.784708629377453
20
-1.8592870668463262
42
0.41421356237309392
10
-2.8267733267229751
20
-1.9370241959239396
0
CIRCLE
5
105
100
AcDbEntity
8
0
100
AcDbCircle
10
0.96699999999999919
20
-4.5114884570176166
30
0
40
0.054499999999999993
0
CIRCLE
5
106
100
AcDbEntity
8
0
100
AcDbCircle
10
3.7788749181008052
20
-5.0993977622310016
30
0
40
0.054499999999999993
0
CIRCLE
5
107
100
AcDbEntity
8
0
100
AcDbCircle
10
-3.3786548014427078
20
-2.5793574353334288
30
0
40
0.054499999999999993
0
CIRCLE
5
108
100
AcDbEntity
8
0
100
AcDbCircle
10
-1.712249611876461
20
-1.0892708801576596
30
0
40
0.054499999999999993
0
CIRCLE
5
109
100
AcDbEntity
8
0
100
AcDbCircle
10
-3.7788749181008052
20
-5.0993977622310016
30
0
40
0.054499999999999993
0
CIRCLE
5
110
100
AcDbEntity
8
0
100
AcDbCircle
10
-0.96699999999999842
20
-2.2627014340334886
30
0
40
0.054499999999999993
0
CIRCLE
5
111
100
AcDbEntity
8
0
100
AcDbCircle
10
3.3786548014427078
20
-2.5793574353334288
30
0
40
0.054499999999999993
0
CIRCLE
5
112
100
AcDbEntity
8
0
100
AcDbCircle
10
-0.96699999999999919
20
-4.5114884570176166
30
0
40
0.054499999999999993
0
CIRCLE
5
113
100
AcDbEntity
8
0
100
AcDbCircle
10
0.96699999999999842
20
-2.2627014340334886
30
0
40
0.054499999999999993
0
CIRCLE
5
114
100
AcDbEntity
8
0
100
AcDbCircle
10
1.712249611876461
20
-1.0892708801576596
30
0
40
0.054499999999999993
0
LWPOLYLINE
5
115
100
AcDbEntity
8
0
100
AcDbPolyline
90
16
70
1
43
0.0
10
-5.2103635822992755
20
-3.1302855428726652
42
-0.40518699987946888
10
-4.8885909463003081
20
-2.513028302540282
42
0.14922000653428844
10
-1.2741410318624724
20
0.048706068919478804
42
-0.45098008631326869
10
-0.15227049448358071
20
0.12228233575160931
42
0.41213519330340204
10
0.15227049448358043
20
0.12228233575160942
42
-0.4509800863132688
10
1.2741410318624713
20
0.048706068919478276
42
0.14922000653428921
10
4.8885909463003063
20
-2.5130283025402806
42
-0.40518699987946993
10
5.2103635822992747
20
-3.1302855428726652
10
4.4779757713155277
20
-5.5899271525296177
42
-0.41421356237309753
10
3.8560787386946158
20
-5.9264447312938016
10
0.94575890771350479
20
-5.0598620706710644
42
0.072477087947437624
10
0.37500000000002154
20
-4.9766912934412453
10
-0.37499999999997902
20
-4.976691293441255
42
0.072477087947427868
10
-0.94575890771339077
20
-5.0598620706710706
10
-3.8560787386946207
20
-5.9264447312938051
42
-0.41421356237309465
10
-4.4779757713155286
20
-5.5899271525296177
0
ENDSEC
0
SECTION
2
OBJECTS
0
DICTIONARY
5
C
100
AcDbDictionary
3
ACAD_GROUP
350
D
3
ACAD_MLINESTYLE
350
17
0
DICTIONARY
5
D
100
AcDbDictionary
0
DICTIONARY
5
1A
330
C
100
AcDbDictionary
0
DICTIONARY
5
17
100
AcDbDictionary
0
ENDSEC
0
EOF
